<?xml version="1.0" encoding="UTF-8"?>
<svg id="Calque_1" data-name="Calque 1" xmlns="http://www.w3.org/2000/svg" viewBox="0 0 283.5 283.5">
  <defs>
    <style>
      .cls-1 {
        fill: #e60012;
      }

      .cls-2 {
        fill: #fff;
      }
    </style>
  </defs>
  <path class="cls-1" d="M8.08,8.02C17.02-1.5,45.61.4,61.4,0,103.97.01,156.66-.01,200.52,0c14.09,0,27.69-.07,40.72.21,16.17.72,36.55-.07,39.99,19.68,2.57,12.87,2.05,25.51,2.26,39.18,0,18.83.03,39.09.01,59.02,0,35.37.04,80.73-.05,112.86-.08,14.15-.09,38.01-8.04,44.46-6.43,7.96-30.32,7.96-44.46,8.04-32.16.07-77.47.05-112.86.05-19.93.02-40.21,0-59.02-.01-13.67-.2-26.31.31-39.18-2.26C.15,277.77.91,257.43.21,241.23-.05,228.19,0,214.61,0,200.52c-.01-43.84,0-96.57,0-139.12C.36,45.6-1.49,17.01,8.02,8.08l.06-.06Z"/>
  <path class="cls-2" d="M153.8,209.17h19.6c18,0,32.6-14.6,32.6-32.6v-62c0-18-14.6-32.6-32.6-32.6h-19.7c-.5,0-.8.4-.8.8v125.5c0,.5.4.9.9.9h0ZM178,139.07c7.1,0,12.9,5.8,12.9,12.9s-5.8,12.9-12.9,12.9-12.9-5.8-12.9-12.9c.1-7.1,5.8-12.9,12.9-12.9ZM98.6,120.17c0,6.6,5.4,12,12,12s12-5.4,12-12-5.4-12-12-12-12,5.3-12,12ZM139.2,81.97h-27.8c-18,0-32.6,14.6-32.6,32.6v62c0,18,14.6,32.6,32.6,32.6h27.8c.5,0,.9-.4.9-.9v-125.4c0-.5-.4-.9-.9-.9ZM129.9,198.97h-18.5c-6,0-11.6-2.3-15.8-6.6-4.2-4.2-6.6-9.8-6.6-15.8v-62c0-6,2.3-11.6,6.6-15.8,4.2-4.2,9.8-6.6,15.8-6.6h18.5v106.8Z"/>
</svg>