<?xml version="1.0" encoding="UTF-8"?>
<svg xmlns="http://www.w3.org/2000/svg" xmlns:xlink="http://www.w3.org/1999/xlink" viewBox="0 0 824.62 200">
  <defs>
    <style>
      .cls-1 {
        fill: url(#Dégradé_sans_nom_3);
      }

      .cls-1, .cls-2, .cls-3 {
        fill-rule: evenodd;
      }

      .cls-2 {
        fill: url(#Dégradé_sans_nom_2);
      }

      .cls-3 {
        fill: url(#Dégradé_sans_nom);
      }
    </style>
    <linearGradient id="Dégradé_sans_nom" data-name="Dégradé sans nom" x1="155.18" y1="145.42" x2="155.18" y2="275.14" gradientTransform="translate(0 310.28) scale(1 -1)" gradientUnits="userSpaceOnUse">
      <stop offset="0" stop-color="#23bcee"/>
      <stop offset=".07" stop-color="#24b0e5"/>
      <stop offset=".36" stop-color="#2785c3"/>
      <stop offset=".63" stop-color="#2965aa"/>
      <stop offset=".85" stop-color="#2b529b"/>
      <stop offset="1" stop-color="#2b4b96"/>
    </linearGradient>
    <linearGradient id="Dégradé_sans_nom_2" data-name="Dégradé sans nom 2" x1="672.85" y1="149.81" x2="672.85" y2="271.68" gradientTransform="translate(0 310.28) scale(1 -1)" gradientUnits="userSpaceOnUse">
      <stop offset="0" stop-color="#09b2cf"/>
      <stop offset="1" stop-color="#304e97"/>
    </linearGradient>
    <linearGradient id="Dégradé_sans_nom_3" data-name="Dégradé sans nom 3" x1="396.34" y1="145.42" x2="396.34" y2="275.14" gradientTransform="translate(0 310.28) scale(1 -1)" gradientUnits="userSpaceOnUse">
      <stop offset="0" stop-color="#09b2cf"/>
      <stop offset=".2" stop-color="#178fbb"/>
      <stop offset=".4" stop-color="#2273ab"/>
      <stop offset=".6" stop-color="#2a5ea0"/>
      <stop offset=".8" stop-color="#2e5299"/>
      <stop offset="1" stop-color="#304e97"/>
    </linearGradient>
  </defs>
  <g id="Calque_2" data-name="Calque 2">
    <rect width="824.62" height="200"/>
  </g>
  <g id="Layer_1" data-name="Layer 1">
    <g id="g3">
      <polygon id="polygon5" class="cls-3" points="38.34 35.14 38.34 44.29 263.7 44.29 263.7 95.01 38.34 95.01 38.34 164.86 47.48 164.86 47.48 104.16 272.02 104.16 272.02 35.14 38.34 35.14"/>
      <polygon id="polygon7" class="cls-2" points="555.59 35.14 555.59 44.29 780.96 44.29 780.96 95.01 555.59 95.01 555.59 164.86 790.1 164.86 790.1 155.72 565.58 155.72 565.58 104.16 790.1 104.16 790.1 35.14 555.59 35.14"/>
      <polygon id="polygon9" class="cls-1" points="391.77 35.14 391.77 155.72 272.02 155.72 272.02 164.86 401.75 164.86 401.75 44.29 520.66 44.29 520.66 35.14 391.77 35.14"/>
    </g>
  </g>
</svg>