<?xml version="1.0" encoding="UTF-8"?>
<svg id="Calque_1" data-name="Calque 1" xmlns="http://www.w3.org/2000/svg" viewBox="0 0 665.5 200">
  <g id="ps5_logo" data-name="ps5 logo">
    <path id="ps5" d="M630,35.4h-184v49.88s-.56,19.26,23.26,19.26h112.47c4.41-.04,8.78.85,12.83,2.61,6.28,2.8,13.34,8.5,13.34,20,0,10.32-5,16.18-9.95,19.46-4.1,2.65-8.88,4.04-13.76,4h-138.19v14h154.09s35-1.42,35-37.39c0-18.29-10.68-27.35-20.29-31.79-6.21-2.85-12.97-4.32-19.8-4.29h-111.47c-1.86.02-3.69-.41-5.34-1.27-2.38-1.29-5-3.85-5-8.89v-31.77h156.81v-13.81ZM214.41,150.56v14h78.1c9.33.1,18.39-3.18,25.5-9.23,7.43-6.3,11.61-15.62,11.38-25.36v-59.51c-.08-6.59,2.87-12.86,8-17,3.6-2.81,8.04-4.31,12.61-4.25h68.09v-13.81h-81.09s-35,.56-35,37.58v55.57c.06,4.55-1.17,9.03-3.54,12.91-3.5,5.85-9.89,9.34-16.7,9.13l-67.35-.03ZM34.09,35.4v13.81h139.2c3.87-.03,7.7.79,11.22,2.41,5.52,2.59,11.72,7.92,11.72,18.73s-6.2,15.75-11.72,18.35c-3.57,1.64-7.47,2.47-11.4,2.44h-103.24c-6.11-.06-12.15,1.31-17.64,4-8.59,4.31-18.14,14.46-18.14,31.2v38h26.79v-37.83c-.02-2.46.43-4.9,1.31-7.2,2.21-5.67,7.8-14.77,20.87-14.77h104.1c3.5.02,6.99-.45,10.36-1.39,9.56-2.72,25.5-10.58,25.5-32.8,0-34.53-34.37-34.95-34.37-34.95H34.09Z"/>
  </g>
</svg>