<?xml version="1.0" encoding="UTF-8"?>
<svg xmlns="http://www.w3.org/2000/svg" viewBox="0 0 715.5 200">
  <defs>
    <style>
      .cls-1 {
        fill: #fff;
      }
    </style>
  </defs>
  <g id="Calque_2" data-name="Calque 2">
    <rect width="715.5" height="200" rx="40" ry="40"/>
  </g>
  <g id="Ebene_1" data-name="Ebene 1">
    <g>
      <path class="cls-1" d="M445,32.79h-82.59c-25.47,0-37.96,15.74-37.96,36.18v62.09c0,12.68-5.99,21.79-18.63,21.79h-72.24c-.51,0-.93.42-.93.9v12.53c0,.51.42.94.93.94h81.77c25.46,0,37.98-15.67,37.98-36.12v-62.13c0-12.69,5.94-21.82,18.66-21.82h73.02c.57,0,1.02-.41,1.02-.92v-12.51c0-.49-.45-.93-1.02-.93Z"/>
      <path class="cls-1" d="M201.88,32.79H42.95c-.58,0-1,.44-1,.93v12.51c0,.51.42.94,1,.94h149.37c12.63,0,18.62,9.1,18.62,21.8s-5.99,21.73-18.62,21.73h-118.17c-18.35,0-32.2,15.42-32.2,35.86v39.69c0,.54.42.97,1,.97h26.93c.53,0,.97-.43.97-.97v-39.69c0-12.61,7.25-21.51,17.76-21.51h113.28c25.42,0,37.89-15.62,37.89-36.07s-12.46-36.19-37.89-36.19Z"/>
      <path class="cls-1" d="M659.75,98.32c-.36-.4-.36-1.08,0-1.47,7.92-6.56,11.84-16.44,11.84-27.87,0-20.42-12.44-36.19-37.94-36.19h-158.89c-.54,0-.94.44-.94.97v12.47c0,.51.4.94.94.94h149.35c12.59,0,18.67,9.1,18.67,21.8s-6.03,21.73-18.67,21.73h-.18l-149.16.03c-.54,0-.94.39-.94.96v12.46c0,.5.4.9.94.9h149.35c16.47.19,18.64,16.23,18.64,24.44l.03,1.54c0,12.71-6.08,21.86-18.67,21.86h-149.35c-.54,0-.94.39-.94.9v12.49c0,.51.4.94.94.94h158.89c25.52,0,37.94-16.94,37.94-36.19v-1.54c0-12.27-3.92-24-11.84-31.16Z"/>
    </g>
  </g>
</svg>