<?xml version="1.0" encoding="UTF-8"?>
<svg id="Calque_1" data-name="Calque 1" xmlns="http://www.w3.org/2000/svg" xmlns:xlink="http://www.w3.org/1999/xlink" viewBox="0 0 495.63 490.01">
  <defs>
    <style>
      .cls-1 {
        fill: url(#Dégradé_sans_nom_7);
      }

      .cls-2 {
        fill: url(#Dégradé_sans_nom_6);
      }

      .cls-3 {
        fill: url(#Dégradé_sans_nom_2);
      }

      .cls-4 {
        fill: #666;
      }

      .cls-5 {
        fill: url(#Dégradé_sans_nom);
      }

      .cls-6 {
        fill: url(#Dégradé_sans_nom_4);
      }

      .cls-7 {
        fill: #00a54d;
      }

      .cls-8 {
        fill: url(#Dégradé_sans_nom_3);
      }

      .cls-9 {
        fill: url(#Dégradé_sans_nom_5);
      }

      .cls-10 {
        fill: #02a74d;
      }
    </style>
    <radialGradient id="Dégradé_sans_nom" data-name="Dégradé sans nom" cx="-884.48" cy="-808.97" fx="-884.48" fy="-808.97" r="14.35" gradientTransform="translate(-17626.95 22221.87) rotate(90) scale(24.88 22.09)" gradientUnits="userSpaceOnUse">
      <stop offset="0" stop-color="#fff"/>
      <stop offset="1" stop-color="#fff" stop-opacity="0"/>
    </radialGradient>
    <radialGradient id="Dégradé_sans_nom_2" data-name="Dégradé sans nom 2" cx="-884.48" cy="-808.97" fx="-884.48" fy="-808.97" r="14.35" gradientTransform="translate(-17626.95 22221.87) rotate(90) scale(24.88 22.09)" gradientUnits="userSpaceOnUse">
      <stop offset="0" stop-color="#fff"/>
      <stop offset="1" stop-color="#fff" stop-opacity="0"/>
    </radialGradient>
    <radialGradient id="Dégradé_sans_nom_3" data-name="Dégradé sans nom 3" cx="-884.48" cy="-808.97" fx="-884.48" fy="-808.97" r="14.35" gradientTransform="translate(-17626.95 22221.87) rotate(90) scale(24.88 22.09)" gradientUnits="userSpaceOnUse">
      <stop offset="0" stop-color="#fff"/>
      <stop offset="1" stop-color="#fff" stop-opacity="0"/>
    </radialGradient>
    <linearGradient id="Dégradé_sans_nom_4" data-name="Dégradé sans nom 4" x1="-752.77" y1="-325.37" x2="-756.73" y2="-330.01" gradientTransform="translate(11383.04 5100.71) scale(14.91 14.71)" gradientUnits="userSpaceOnUse">
      <stop offset="0" stop-color="#97ca43"/>
      <stop offset="1" stop-color="#97ca43" stop-opacity="0"/>
    </linearGradient>
    <linearGradient id="Dégradé_sans_nom_5" data-name="Dégradé sans nom 5" x1="-752.72" y1="-336.49" x2="-749.09" y2="-344.54" gradientTransform="translate(11378.94 5100.71) scale(14.91 14.71)" gradientUnits="userSpaceOnUse">
      <stop offset="0" stop-color="#97ca43"/>
      <stop offset="1" stop-color="#97ca43" stop-opacity="0"/>
    </linearGradient>
    <linearGradient id="Dégradé_sans_nom_6" data-name="Dégradé sans nom 6" x1="2017.68" y1="-326.49" x2="2013.72" y2="-331.13" gradientTransform="translate(-29517.37 5098.34) scale(14.81 14.74)" gradientUnits="userSpaceOnUse">
      <stop offset="0" stop-color="#97ca43"/>
      <stop offset="1" stop-color="#97ca43" stop-opacity="0"/>
    </linearGradient>
    <linearGradient id="Dégradé_sans_nom_7" data-name="Dégradé sans nom 7" x1="2013.11" y1="-337.72" x2="2016.2" y2="-342.76" gradientTransform="translate(-29517.38 5098.36) scale(14.81 14.74)" gradientUnits="userSpaceOnUse">
      <stop offset="0" stop-color="#97ca43"/>
      <stop offset="1" stop-color="#97ca43" stop-opacity="0"/>
    </linearGradient>
  </defs>
  <path class="cls-4" d="M495.63,245.01c0,135.32-110.95,245.01-247.81,245.01S0,380.33,0,245.01,110.95,0,247.81,0s247.81,109.69,247.81,245.01h0Z"/>
  <path class="cls-5" d="M495.63,245.01c0,135.32-110.95,245.01-247.81,245.01S0,380.33,0,245.01,110.95,0,247.81,0s247.81,109.69,247.81,245.01h0Z"/>
  <path class="cls-3" d="M495.63,245.01c0,135.32-110.95,245.01-247.81,245.01S0,380.33,0,245.01,110.95,0,247.81,0s247.81,109.69,247.81,245.01h0Z"/>
  <path class="cls-8" d="M495.63,245.01c0,135.32-110.95,245.01-247.81,245.01S0,380.33,0,245.01,110.95,0,247.81,0s247.81,109.69,247.81,245.01h0Z"/>
  <path class="cls-7" d="M184.94,137.69c-27.37,33.17-141.99,167.98-131.82,259.12,7.08,8.96,14.88,17.36,23.12,25.27-1.2-69.78,80.68-144.44,144.57-200.81l-35.89-83.58h.01Z"/>
  <path class="cls-6" d="M184.92,137.69c-27.35,33.17-141.97,167.97-131.81,259.12,7.07,8.97,14.87,17.36,23.12,25.26-1.2-69.76,80.67-144.45,144.58-200.8l-35.89-83.58Z"/>
  <g>
    <path class="cls-10" d="M117.67,36.62c-14.23,8.61-27.55,18.61-39.77,29.86,39.31,7.47,78.73,42.08,100.36,70.75,18.83,29.43,29.05,56.41,42.34,84.26,9.25-7.9,18.6-15.68,28.06-23.33l-.06-120.94c-29.29-18.2-77.7-42.15-130.47-40.59-.12.07-.36-.07-.46,0h0Z"/>
    <path class="cls-9" d="M117.67,36.62c-14.23,8.61-27.55,18.61-39.77,29.86,39.31,7.47,78.73,42.08,100.36,70.75,18.83,29.43,29.05,56.41,42.34,84.26,9.25-7.9,18.6-15.68,28.06-23.33l-.06-120.94c-29.29-18.2-77.7-42.15-130.47-40.59-.12.07-.36-.07-.46,0h0Z"/>
  </g>
  <g>
    <path class="cls-7" d="M310.79,137.79c27.26,33.2,141.5,168.12,131.37,259.33-7.05,8.96-14.82,17.38-23.03,25.3,1.19-69.83-80.41-144.57-144.1-200.98l35.77-83.66h0Z"/>
    <path class="cls-2" d="M310.78,137.78c27.26,33.2,141.5,168.13,131.37,259.34-7.09,8.95-14.79,17.4-23.04,25.29,1.19-69.83-80.41-144.57-144.1-200.98l35.77-83.65Z"/>
    <g>
      <path class="cls-10" d="M377.82,36.63c14.18,8.62,27.46,18.63,39.65,29.88-39.18,7.47-78.49,42.11-100.03,70.81-18.76,29.46-28.97,56.46-42.22,84.34-8.97-7.64-18.08-15.41-27.97-23.35l.06-121.06c29.19-18.22,77.44-42.19,130.04-40.63.1.07.35-.07.46,0h0Z"/>
      <path class="cls-1" d="M377.82,36.63c14.18,8.62,27.46,18.63,39.65,29.88-39.18,7.47-78.49,42.11-100.03,70.81-18.76,29.46-28.97,56.46-42.22,84.34-8.97-7.64-18.08-15.41-27.97-23.35l.06-121.06c29.19-18.22,77.44-42.19,130.04-40.63.1.07.35-.07.46,0h0Z"/>
    </g>
  </g>
</svg>