<?xml version="1.0" encoding="UTF-8"?>
<svg id="body" xmlns="http://www.w3.org/2000/svg" viewBox="0 0 188 134.84">
  <defs>
    <style>
      .cls-1 {
        fill: #00a7eb;
      }

      .cls-2 {
        fill: #e60012;
      }

      .cls-3 {
        fill: #ffe100;
      }

      .cls-4 {
        fill: #6eb92b;
      }
    </style>
  </defs>
  <g id="g3512">
    <path id="path3324" class="cls-4" d="M0,79.74l.05-.98.15-.96.24-.95.33-.93.42-.93.51-.9.59-.88.67-.86.75-.84.83-.81.9-.8.97-.76,1.05-.75,1.11-.71,1.18-.69,1.24-.66,1.3-.63,1.36-.6,1.42-.56,1.47-.53,1.52-.49,1.57-.46,1.62-.41,1.66-.39,1.7-.34,1.74-.3,1.78-.25,1.81-.21,1.85-.16,1.88-.13,1.9-.08,1.93-.03c20.74,0,37.51,8.5,37.51,18.99s-16.78,18.99-37.51,18.99S0,90.26,0,79.74Z"/>
    <path id="path3326" class="cls-3" d="M69.3,114.9l.05-1.03.15-1.01.25-1,.35-.98.44-.96.53-.95.62-.93.71-.91.79-.89.87-.85.95-.84,1.02-.81,1.1-.78,1.17-.75,1.24-.73,1.3-.69,1.37-.66,1.43-.63,1.49-.59,1.54-.56,1.6-.51,1.65-.49,1.7-.44,1.74-.4,1.79-.35,1.83-.31,1.87-.28,1.92-.21,1.94-.18,1.97-.14,2-.08,2.03-.03c21.75,0,39.43,8.93,39.43,19.95s-17.67,19.95-39.43,19.95-39.4-8.93-39.4-19.95Z"/>
    <path id="path3328" class="cls-1" d="M85.46,71.18l1.77-.11,1.74-.2,1.72-.28,1.69-.36,1.66-.44,1.63-.51,1.59-.6,1.55-.66,1.52-.74,1.48-.8,1.43-.88,1.39-.93,1.34-1,1.29-1.06,1.24-1.11,1.18-1.16,1.14-1.23,1.06-1.29,1.01-1.33.95-1.38.89-1.42.81-1.47.75-1.52.68-1.54.61-1.59.54-1.62.45-1.65.39-1.69.3-1.72.21-1.74.13-1.77.05-1.78C119.65,15.96,103.7,0,84.05,0s-35.38,15.68-35.61,35.17c.46-.03.92-.03,1.41-.03,19.65,0,35.61,15.92,35.61,35.61v.43"/>
    <path id="path3330" class="cls-2" d="M154.73,106.36l1.73-.11,1.69-.19,1.68-.28,1.64-.35,1.62-.44,1.58-.5,1.55-.58,1.52-.65,1.48-.71,1.43-.79,1.4-.85,1.34-.9,1.3-.98,1.25-1.03,1.21-1.09,1.15-1.14,1.09-1.2,1.05-1.24.98-1.3.93-1.34.86-1.38.79-1.43.74-1.48.66-1.5.59-1.54.51-1.58.45-1.62.36-1.64.3-1.67.2-1.7.13-1.72.05-1.74c0-19.15-15.49-34.68-34.65-34.68s-34.42,15.29-34.64,34.25c.45-.03.91-.03,1.38-.03,19.11,0,34.65,15.53,34.65,34.68v.43"/>
  </g>
</svg>