<?xml version="1.0" encoding="UTF-8"?>
<svg id="svg2" xmlns="http://www.w3.org/2000/svg" viewBox="0 0 375.03 374.53">
  <defs>
    <style>
      .cls-1 {
        fill: #fe2015;
      }

      .cls-2 {
        fill: #ffc001;
      }

      .cls-3 {
        fill: #011da9;
      }

      .cls-4 {
        fill: #069330;
      }

      .cls-5 {
        fill: #0222a9;
      }
    </style>
  </defs>
  <g id="g4">
    <path id="path6" class="cls-5" d="M229.01,117.12l10.96-12.46V20.43l-52.33,20.18h0l-43.36,77.25,43.36-16.7,41.37,15.95Z"/>
    <path id="path8" class="cls-3" d="M321.95,234.49V92.45l53.08-20.43v223.52l-53.08,22.43h0l-78-101.92v134.81l-56.32,23.67v-230.25l56.32-21.43,78,111.64Z"/>
    <path id="path10" class="cls-5" d="M103.16,295.79l-49.84-96.69v118.86h0l49.84-22.18Z"/>
    <path id="path12" class="cls-4" d="M106.4,72.02h0l24.92,50.83,12.96-4.98,43.36-77.25-52.33-20.43-28.91,51.83Z"/>
    <path id="path14" class="cls-4" d="M229.01,117.12h0l39.87-45.1,53.08,20.43v142.04l-78-111.64-14.95-5.73Z"/>
    <path id="path16" class="cls-4" d="M187.64,374.53v-230.25l-56.32-21.43v116.87L53.08,92.45h0L0,72.02v223.52l53.08,22.43v-118.86l78.25,151.76,56.32,23.67Z"/>
    <path id="path18" class="cls-1" d="M53.33,92.45l53.08-20.43,24.92,50.83h0v116.87L53.33,92.45Z"/>
    <path id="path20" class="cls-1" d="M243.96,271.62l15.95,22.43,62.05,23.92h0l-78-101.92v55.57Z"/>
    <path id="path22" class="cls-2" d="M131.57,122.85l56.32-21.43,56.32,21.43h0l-56.32,21.43-56.32-21.43Z"/>
    <path id="path24" class="cls-2" d="M321.95,51.58l53.08,20.43-53.08,20.43-53.08-20.43h0l53.08-20.43Z"/>
    <path id="path26" class="cls-2" d="M53.33,51.58l53.08,20.43-53.08,20.43L.25,72.02H.25l53.08-20.43Z"/>
    <path id="path28" class="cls-2" d="M187.64,0l-52.33,20.18,52.33,20.43,52.33-20.18h0L187.64,0Z"/>
  </g>
</svg>