<?xml version="1.0" encoding="UTF-8"?>
<svg id="Calque_1" data-name="Calque 1" xmlns="http://www.w3.org/2000/svg" viewBox="0 0 139.14 51.59">
  <defs>
    <style>
      .cls-1 {
        fill: none;
        stroke-width: .32px;
      }

      .cls-1, .cls-2 {
        stroke: red;
      }

      .cls-3 {
        fill: red;
      }

      .cls-2 {
        fill: #fff;
        stroke-width: 3.41px;
      }
    </style>
  </defs>
  <path class="cls-2" d="M25.6,1.7h88.01c7.02,0,12.71,5.69,12.71,12.71h0c0,7.02-5.69,12.71-12.71,12.71H25.6c-7.02,0-12.71-5.69-12.71-12.71h0c0-7.02,5.69-12.71,12.71-12.71Z"/>
  <path class="cls-3" d="M36.9,21.09V7.79h-4v9.3l-5.9-9.3h-4.3v13.3h4v-9.6l6.2,9.6h4Z"/>
  <path class="cls-3" d="M43.4,21.09v-9h-4v9h4Z"/>
  <path class="cls-3" d="M43.4,10.19v-2.4h-4v2.4h4Z"/>
  <path id="_3162" data-name="3162" class="cls-3" d="M57.4,21.09v-6.2c0-1.3-2.5-3.1-3.8-3.1h-1.2c-.9,0-1.9.8-2.8,1.2v-.9h-4v9h4v-6.2c0-.6,1.4-1.3,2-1.3s1.7.7,1.7,1.3v6.2h4.1Z"/>
  <path id="_3162-2" data-name="3162" class="cls-3" d="M90.87,21.4v-6.2c0-1.3-2.5-3.1-3.8-3.1h-1.2c-.9,0-1.9.8-2.8,1.2v-.9h-4v9h4v-6.2c0-.6,1.4-1.3,2-1.3s1.7.7,1.7,1.3v6.2h4.1Z"/>
  <path class="cls-3" d="M63.9,21.09v-9h2.1v-1.2h-2.1v-1.9h-4.1v1.9h-2.1v1.2h2.1v9h4.1Z"/>
  <path class="cls-3" d="M71.6,11.79c-3.2,0-5.9,2.2-5.9,4.9s2.7,5,5.9,5c2.8,0,5.1-1.6,5.7-3.7h-4.1v1.2c0,1-.7,1.3-1.6,1.3s-1.5-.3-1.5-1.3v-2.5h7.4c0-2.7-2.6-4.9-5.9-4.9ZM71.6,12.69c.9,0,1.6.6,1.6,1.6v.9h-3.1v-.9c0-1,.6-1.6,1.5-1.6Z"/>
  <path class="cls-3" d="M111,11.79c-3.3,0-5.9,2.2-5.9,4.9s2.6,5,5.9,5,5.9-2.2,5.9-5-2.7-4.9-5.9-4.9ZM111,12.69c.9,0,1.5.6,1.5,1.6v4.9c0,1-.6,1.3-1.5,1.3-1,0-1.6-.3-1.6-1.3v-4.9c0-1,.6-1.6,1.6-1.6Z"/>
  <path class="cls-3" d="M99.5,7.79v4.9s-1.2-.9-2.8-.9c-2.5,0-4.6,2.2-4.6,4.6s2.1,5,4.6,5c1.6,0,2.8-.6,2.8-.6v.3h4V7.79h-4ZM98,13.29c.9,0,1.5.7,1.5,1.6v3.7c0,.9-.6,1.2-1.5,1.2-1,0-1.6-.3-1.6-1.2v-3.7c0-.9.6-1.6,1.6-1.6Z"/>
  <path class="cls-1" d="M119.3,9.89c0,1-.9,1.9-1.9,1.9-1.1,0-1.9-.9-1.9-1.9,0-1.1.8-2,1.9-2,1,0,1.9.9,1.9,2ZM117.9,10.69l-.4-.7h-.7.7c.6,0,.6-1,0-1h-.7v1.7"/>
  <path id="_2399" data-name="2399" d="M21.2,40.59v-5.8c0-1.1-1.1-2.2-2.2-2.2h-8.4v8h2.6v-5.4c0-.4.3-.8.7-.8h4c.4,0,.8.4.8.8v5.4h2.5Z"/>
  <g id="use3171">
    <path id="_2399-2" data-name="2399" d="M90.59,40.59v-5.8c0-1.1-1.1-2.2-2.2-2.2h-8.4v8h2.6v-5.4c0-.4.3-.8.7-.8h4c.4,0,.8.4.8.8v5.4h2.5Z"/>
  </g>
  <g id="use3171-2" data-name="use3171">
    <path id="_2399-3" data-name="2399" d="M128.58,40.59v-5.8c0-1.1-1.1-2.2-2.2-2.2h-8.4v8h2.6v-5.4c0-.4.3-.8.7-.8h4c.4,0,.8.4.8.8v5.4h2.5Z"/>
  </g>
  <path id="_3177" data-name="3177" d="M105.9,40.59v-5.8c0-1.1-1.1-2.2-2.2-2.2h-11.3v8h2.6v-5.4c0-.4.3-.8.7-.8h1.5c.3,0,.7.4.7.8v5.4h2.6v-5.4c0-.4.3-.8.7-.8h1.5c.3,0,.7.4.7.8v5.4h2.5Z"/>
  <path id="_3181" data-name="3181" d="M8.8,40.59H2.2c-1.1,0-2.2-.7-2.2-1.8v-6.3h8.8v1.9H2.9c-.3,0-.7.3-.7.7s.4.7.7.7h5.5v1.6H2.9c-.3,0-.7.4-.7.7,0,.4.4.8.7.8h5.9v1.7Z"/>
  <path id="_3181-2" data-name="3181" d="M41.3,40.59h-6.6c-1.1,0-2.2-.7-2.2-1.8v-6.3h8.8v1.9h-5.9c-.3,0-.7.3-.7.7s.4.7.7.7h5.5v1.6h-5.5c-.3,0-.7.4-.7.7,0,.4.4.8.7.8h5.9v1.7Z"/>
  <path id="_3181-3" data-name="3181" d="M116.54,40.59h-6.6c-1.1,0-2.2-.7-2.2-1.8v-6.3h8.8v1.9h-5.9c-.3,0-.7.3-.7.7s.4.7.7.7h5.5v1.6h-5.5c-.3,0-.7.4-.7.7,0,.4.4.8.7.8h5.9v1.7Z"/>
  <path id="_2391" data-name="2391" d="M22.3,32.59v1.8h2.6q.7,0,.7.8v5.4h2.5v-5.4q0-.8.8-.8h2.5v-1.8h-9.1Z"/>
  <path id="_2391-2" data-name="2391" d="M54.07,32.59v1.8h2.6q.7,0,.7.8v5.4h2.5v-5.4q0-.8.8-.8h2.5v-1.8h-9.1Z"/>
  <path id="_2391-3" data-name="2391" d="M130.04,32.59v1.8h2.6q.7,0,.7.8v5.4h2.5v-5.4q0-.8.8-.8h2.5v-1.8h-9.1Z"/>
  <path d="M43.1,32.59v8h2.6v-1.4c0-.4.3-.8.7-.8h3.3c.4,0,.7.4.7.8v1.4h2.2v-2.2c0-.3-.3-.7-.3-1.1,0-.3.7-1,.7-1.8v-.7c0-.7-1.1-2.2-1.8-2.2h-8.1ZM46.4,34.39h3.3c.4,0,.7.4.7.8v.7c0,.4-.3.7-.7.7h-3.3c-.4,0-.7-.3-.7-.7v-.7c0-.4.3-.8.7-.8Z"/>
  <path d="M66.1,32.59c-.7,0-1.8,1.5-1.8,2.2v5.8h2.6v-2.2h4.7v2.2h2.6v-5.8c0-.7-1.1-2.2-1.9-2.2h-6.2ZM67.6,34.39h3.3c.3,0,.7.4.7.8v1.4h-4.7v-1.4c0-.4.3-.8.7-.8Z"/>
  <path d="M78.5,40.59v-8h-2.5v8h2.5Z"/>
  <path id="_3177-2" data-name="3177" d="M102.61,51.55v-5.8c0-1.1-1.1-2.2-2.2-2.2h-11.3v8h2.6v-5.4c0-.4.3-.8.7-.8h1.5c.3,0,.7.4.7.8v5.4h2.6v-5.4c0-.4.3-.8.7-.8h1.5c.3,0,.7.4.7.8v5.4h2.5Z"/>
  <path id="_3181-4" data-name="3181" d="M87.32,51.55h-6.6c-1.1,0-2.2-.7-2.2-1.8v-6.3h8.8v1.9h-5.9c-.3,0-.7.3-.7.7s.4.7.7.7h5.5v1.6h-5.5c-.3,0-.7.4-.7.7,0,.4.4.8.7.8h5.9v1.7Z"/>
  <path id="_2391-4" data-name="2391" d="M68.32,43.55v1.8h2.6q.7,0,.7.8v5.4h2.5v-5.4q0-.8.8-.8h2.5v-1.8h-9.1Z"/>
  <path id="_3187" data-name="3187" d="M38.7,43.59c-.7,0-2.2,1.1-2.2,1.8v1.1c0,.7,1.5,1.8,2.2,1.8h4.4c.4,0,.8.4.8.7,0,.4-.4.8-.8.8h-6.6v1.8h7.4c.7,0,2.1-1.1,2.1-1.8v-1.1c0-.8-1.4-1.9-2.1-1.9h-4.4c-.4,0-.8-.3-.8-.7s.4-.7.8-.7h6.5v-1.8h-7.3Z"/>
  <path id="_3187-2" data-name="3187" d="M59.88,43.59c-.7,0-2.2,1.1-2.2,1.8v1.1c0,.7,1.5,1.8,2.2,1.8h4.4c.4,0,.8.4.8.7,0,.4-.4.8-.8.8h-6.6v1.8h7.4c.7,0,2.1-1.1,2.1-1.8v-1.1c0-.8-1.4-1.9-2.1-1.9h-4.4c-.4,0-.8-.3-.8-.7s.4-.7.8-.7h6.5v-1.8h-7.3Z"/>
  <path d="M46.8,43.59v3.6c0,.7,1.1,1.8,1.8,1.8h1.8v2.6h2.6v-2.6h1.8c.7,0,1.8-1.1,1.8-1.8v-3.6h-2.5v2.9c0,.3-.4.7-.8.7h-3.2c-.4,0-.8-.4-.8-.7v-2.9h-2.5Z"/>
</svg>