<?xml version="1.0" encoding="UTF-8"?>
<svg id="Calque_1" data-name="Calque 1" xmlns="http://www.w3.org/2000/svg" viewBox="0 0 759.75 759.64">
  <defs>
    <style>
      .cls-1 {
        fill: #0f7c10;
      }

      .cls-2 {
        fill: none;
        stroke: #0f7c10;
        stroke-linecap: round;
        stroke-linejoin: round;
      }
    </style>
  </defs>
  <line class="cls-2" x1="129.77" y1="665.84" x2="129.69" y2="665.76"/>
  <polygon class="cls-1" points="630.01 665.76 629.93 665.84 629.97 665.84 630.01 665.76"/>
  <path class="cls-1" d="M646.79,109.6v-.04l-.36-.32.32.32c.44.4-33.67-29.08-162.37,98.98-.4.32-.72.72-.72,1.28,0,.4.28.76.56,1.08,76.45,91.03,224.36,308.24,195.4,397.79-.24.72-.2,1.56.44,1.96.72.36,1.56,0,2.04-.64,50.47-66.08,77.76-146.96,77.65-230.11.14-101.6-40.56-199-112.96-270.29Z"/>
  <path class="cls-1" d="M182.62,58.52c65.07-16.66,168.4,37.51,196.44,53.6.24.16.48.32.84.32.32,0,.56-.16.8-.32,10.54-6.35,122.34-69.9,195.88-54,.76.2,1.56.04,1.84-.64.28-.72.08-1.52-.64-1.88C519.61,21.01,456.54,0,379.89,0s-140.32,21.01-198.47,55.96c-.65.38-.92,1.18-.64,1.88.32.72,1.12.84,1.84.68Z"/>
  <path class="cls-1" d="M629.89,665.84h.04c59.39-60.43-135.17-274.13-248.84-360.56-.28-.24-.76-.6-1.2-.6h0c-.48,0-1,.36-1.32.6-113.56,86.44-308.08,300.13-248.8,360.56,66.25,58.13,150.61,91.21,238.47,93.8h23.25c87.83-2.59,172.18-35.67,238.4-93.8Z"/>
  <path class="cls-1" d="M113,109.56h0s0,0,0,0Z"/>
  <polygon class="cls-1" points="113 109.56 113 109.56 113.36 109.24 113 109.56"/>
  <path class="cls-1" d="M0,379.89c-.11,83.15,27.18,164.03,77.65,230.11.52.64,1.32,1,2.04.64.68-.4.72-1.24.44-1.96-28.96-89.55,119.07-306.6,195.56-397.59.24-.32.56-.68.56-1.12,0-.52-.36-.92-.72-1.24C148.47,82.28,113.39,109.26,113,109.56v.04C40.59,180.89-.12,278.28,0,379.89Z"/>
</svg>