<?xml version="1.0" encoding="UTF-8"?>
<svg xmlns="http://www.w3.org/2000/svg" viewBox="0 0 348.83 100">
  <defs>
    <style>
      .cls-1 {
        fill: #fff;
      }

      .cls-2 {
        fill: none;
      }

      .cls-3 {
        fill: #1354e0;
      }
    </style>
  </defs>
  <g id="Calque_2" data-name="Calque 2">
    <rect class="cls-3" width="348.83" height="100" rx="20" ry="20"/>
  </g>
  <g id="Layer_1" data-name="Layer 1">
    <g>
      <path class="cls-2" d="M348.21,17.46H26.7v65.08h322.12V17.46h-.62Z"/>
      <path class="cls-2" d="M348.21,17.46H26.7v65.08h322.12V17.46h-.62Z"/>
      <path class="cls-1" d="M181.27,64.5v-29.97c0-6.11,2.85-10.49,8.94-10.49h37.55c.23,0,.45-.23.45-.45v-5.96c0-.05-.02-.1-.04-.15h-45.91c-9.95,1.26-14.81,8.2-14.81,17.06v29.97c0,6.11-2.93,10.5-8.94,10.5h-39.65c-.23,0-.45.15-.45.45v5.96c0,.25.15.44.33.5h45.02c11.73-.31,17.51-7.8,17.51-17.41Z"/>
      <path class="cls-1" d="M27.01,81.91h13.18c.18-.06.33-.25.33-.5v-19.1c0-6.11,3.45-10.34,8.49-10.34h54.3c12.24,0,18.18-7.55,18.18-17.44,0-8.86-4.86-15.8-14.81-17.06H26.77s-.06.09-.06.15v5.96c0,.3.15.45.45.45h71.57c6.08,0,8.94,4.38,8.94,10.49s-2.85,10.49-8.94,10.49h-56.63c-8.79,0-15.4,7.48-15.4,17.29v19.1c0,.25.11.43.31.5Z"/>
      <g>
        <path class="cls-2" d="M239.62,68.05h60.46c.22,0,.45-.23.45-.45V30.37c0-.83-.75-.91-1.13-.6l-60.16,37.22c-.38.23-.53.45-.45.75.07.15.3.3.82.3Z"/>
        <path class="cls-1" d="M227.99,74.99h72.1c.22,0,.37.15.37.3v6.12c0,.3.23.45.45.45h13c.23,0,.45-.15.45-.45v-5.97c0-.23.23-.45.45-.45h12.92c.3,0,.45-.23.45-.45v-6.04c0-.23-.15-.45-.45-.45h-12.92c-.22,0-.45-.23-.45-.45V24.03c0-3.56-1.32-5.82-3.54-6.57h-3.76c-1.17.3-2.45.84-3.81,1.66l-77.66,47.94c-3,1.89-4.06,4-3.3,5.59.6,1.36,2.32,2.34,5.71,2.34ZM239.25,66.99l60.16-37.22c.38-.3,1.13-.23,1.13.6v37.22c0,.23-.23.45-.45.45h-60.46c-.52,0-.75-.15-.82-.3-.08-.3.07-.53.45-.75Z"/>
      </g>
    </g>
  </g>
</svg>