<?xml version="1.0" encoding="UTF-8"?>
<svg id="Calque_1" data-name="Calque 1" xmlns="http://www.w3.org/2000/svg" xmlns:xlink="http://www.w3.org/1999/xlink" viewBox="0 0 899.59 901.06">
  <defs>
    <style>
      .cls-1 {
        fill: url(#Dégradé_sans_nom_2);
      }

      .cls-2 {
        fill: url(#Dégradé_sans_nom);
      }

      .cls-3 {
        fill: url(#Dégradé_sans_nom_4);
      }

      .cls-4 {
        fill: url(#Dégradé_sans_nom_3);
      }

      .cls-5 {
        fill: url(#Dégradé_sans_nom_5);
      }
    </style>
    <radialGradient id="Dégradé_sans_nom" data-name="Dégradé sans nom" cx="-243.49" cy="854.19" fx="-243.49" fy="854.19" r="96.35" gradientTransform="translate(1053.8 -2301.38) scale(3.34 3.2)" gradientUnits="userSpaceOnUse">
      <stop offset=".01" stop-color="#fff"/>
      <stop offset=".32" stop-color="#fffffe"/>
      <stop offset=".43" stop-color="#fdfdf9"/>
      <stop offset=".51" stop-color="#fafbf1"/>
      <stop offset=".57" stop-color="#f5f8e5"/>
      <stop offset=".63" stop-color="#eff3d4"/>
      <stop offset=".68" stop-color="#e8eebe"/>
      <stop offset=".72" stop-color="#dfe7a2"/>
      <stop offset=".76" stop-color="#d5e080"/>
      <stop offset=".8" stop-color="#c9d756"/>
      <stop offset=".83" stop-color="#bacf20"/>
      <stop offset=".89" stop-color="#97c129"/>
      <stop offset=".96" stop-color="#6bb42f"/>
      <stop offset="1" stop-color="#58ae31"/>
    </radialGradient>
    <radialGradient id="Dégradé_sans_nom_2" data-name="Dégradé sans nom 2" cx="-1248.47" cy="854.19" fx="-1248.47" fy="854.19" r="96.35" gradientTransform="translate(-3514.53 -2301.38) rotate(-180) scale(3.34 -3.2)" gradientUnits="userSpaceOnUse">
      <stop offset=".01" stop-color="#fff"/>
      <stop offset=".32" stop-color="#fffffe"/>
      <stop offset=".43" stop-color="#fdfdf9"/>
      <stop offset=".51" stop-color="#fafbf1"/>
      <stop offset=".57" stop-color="#f5f8e5"/>
      <stop offset=".63" stop-color="#eff3d4"/>
      <stop offset=".68" stop-color="#e8eebe"/>
      <stop offset=".72" stop-color="#dfe7a2"/>
      <stop offset=".76" stop-color="#d5e080"/>
      <stop offset=".8" stop-color="#c9d756"/>
      <stop offset=".83" stop-color="#bacf20"/>
      <stop offset=".89" stop-color="#97c129"/>
      <stop offset=".96" stop-color="#6bb42f"/>
      <stop offset="1" stop-color="#58ae31"/>
    </radialGradient>
    <radialGradient id="Dégradé_sans_nom_3" data-name="Dégradé sans nom 3" cx="-820.33" cy="953.6" fx="-820.33" fy="953.6" r="86.04" gradientTransform="translate(-4403.69 2031.24) rotate(-144) scale(3.52 4.2) skewX(-2.96)" gradientUnits="userSpaceOnUse">
      <stop offset=".01" stop-color="#fff"/>
      <stop offset=".33" stop-color="#fffffe"/>
      <stop offset=".44" stop-color="#fdfdf9"/>
      <stop offset=".52" stop-color="#fafbf1"/>
      <stop offset=".59" stop-color="#f5f8e5"/>
      <stop offset=".64" stop-color="#eff3d4"/>
      <stop offset=".69" stop-color="#e8eebe"/>
      <stop offset=".74" stop-color="#dfe7a2"/>
      <stop offset=".78" stop-color="#d5e080"/>
      <stop offset=".81" stop-color="#c9d756"/>
      <stop offset=".85" stop-color="#bacf20"/>
      <stop offset=".85" stop-color="#b4cc22"/>
      <stop offset=".9" stop-color="#91bf2a"/>
      <stop offset=".94" stop-color="#74b62e"/>
      <stop offset=".97" stop-color="#5fb031"/>
      <stop offset="1" stop-color="#58ae31"/>
    </radialGradient>
    <radialGradient id="Dégradé_sans_nom_4" data-name="Dégradé sans nom 4" cx="-260.61" cy="601.69" fx="-260.61" fy="601.69" r="86.04" gradientTransform="translate(2786.59 2031.24) rotate(-36) scale(3.52 -4.2) skewX(-2.96)" gradientUnits="userSpaceOnUse">
      <stop offset=".01" stop-color="#fff"/>
      <stop offset=".33" stop-color="#fffffe"/>
      <stop offset=".44" stop-color="#fdfdf9"/>
      <stop offset=".52" stop-color="#fafbf1"/>
      <stop offset=".59" stop-color="#f5f8e5"/>
      <stop offset=".64" stop-color="#eff3d4"/>
      <stop offset=".69" stop-color="#e8eebe"/>
      <stop offset=".74" stop-color="#dfe7a2"/>
      <stop offset=".78" stop-color="#d5e080"/>
      <stop offset=".81" stop-color="#c9d756"/>
      <stop offset=".85" stop-color="#bacf20"/>
      <stop offset=".85" stop-color="#b4cc22"/>
      <stop offset=".9" stop-color="#91bf2a"/>
      <stop offset=".94" stop-color="#74b62e"/>
      <stop offset=".97" stop-color="#5fb031"/>
      <stop offset="1" stop-color="#58ae31"/>
    </radialGradient>
    <radialGradient id="Dégradé_sans_nom_5" data-name="Dégradé sans nom 5" cx="-173.51" cy="821.99" fx="-173.51" fy="821.99" r="250.83" gradientTransform="translate(959.83 -2287) scale(3.17 3.18)" gradientUnits="userSpaceOnUse">
      <stop offset=".03" stop-color="#fff"/>
      <stop offset=".1" stop-color="#e3e2e3"/>
      <stop offset=".26" stop-color="#b3b1b2"/>
      <stop offset=".38" stop-color="#969696"/>
      <stop offset=".44" stop-color="#8c8c8d"/>
      <stop offset=".52" stop-color="#919191"/>
      <stop offset=".61" stop-color="#9f9f9f"/>
      <stop offset=".7" stop-color="#b8b7b7"/>
      <stop offset=".8" stop-color="#dcdcdc"/>
      <stop offset=".81" stop-color="#e1e1e1"/>
    </radialGradient>
  </defs>
  <path class="cls-2" d="M171.18,97.1c74.97-22.43,183.28,6.2,280.97,71.42l1.18,453.04c-35.71-7.08-73.19-22.14-108.02-41.91-35.71-20.36-71.13-46.93-108.02-78.21l93.85-241.13c-48.7-31.58-238.77-85.3-214.27-112.74,24.79-27.15,54.31-50.47,54.31-50.47h0Z"/>
  <path class="cls-1" d="M728.11,97.1c-74.97-22.43-183.28,6.2-280.97,71.42l-1.18,453.04c35.71-7.08,73.19-22.14,108.02-41.91,35.71-20.36,71.13-46.93,108.02-78.21l-93.85-241.13c48.7-31.58,238.77-85.3,214.27-112.74-24.79-27.15-54.31-50.47-54.31-50.47h0Z"/>
  <path class="cls-4" d="M170.89,803.96l255-289.53-94.74-253.82c-39.84,33.06-79.1,73.19-115.7,119.24-89.72,113.04-167.93,272.12-140.78,319.05s96.22,105.07,96.22,105.07h0Z"/>
  <path class="cls-3" d="M728.7,803.67l-255-289.53,94.74-253.82c39.84,33.06,79.1,73.19,115.7,119.24,89.72,113.04,167.93,272.12,140.78,319.05s-96.22,105.07-96.22,105.07h0Z"/>
  <path class="cls-5" d="M98.28,731.95C36.89,654.92,0,557.23,0,450.97c0-118.94,45.75-226.96,121.01-307.24,0,0,78.51,34.83,210.73,116.58C36.6,566.08,98.28,731.95,98.28,731.95h0ZM449.79,173.25c0-.3-.3-.3,0,0,179.74-130.16,291.6-64.93,291.6-64.93C662.89,40.73,561.06,0,449.5,0S236.11,40.73,157.6,108.32c0,0,111.86-67,291.89,64.64M124.84,761.46c81.75,85.89,196.86,139.6,324.65,139.6s243.49-53.72,325.24-140.19c0,0-47.52-196.56-326.72-403.16-250.28,185.05-323.18,403.75-323.18,403.75h0ZM801.31,731.95c61.39-77.03,98.28-174.72,98.28-280.97,0-118.94-46.04-226.96-121.01-307.24,0,0-78.51,34.83-210.73,116.58,295.14,305.77,233.46,471.63,233.46,471.63Z"/>
</svg>