<?xml version="1.0" encoding="UTF-8"?>
<svg id="Calque_1" data-name="Calque 1" xmlns="http://www.w3.org/2000/svg" viewBox="0 0 88.3 26.6">
  <defs>
    <style>
      .cls-1 {
        fill: none;
      }

      .cls-2 {
        fill: #8c8c8c;
      }

      .cls-3 {
        fill: #0096c8;
      }
    </style>
  </defs>
  <path class="cls-1" d="M0,0h88.3v26.6H0V0Z"/>
  <path class="cls-2" d="M41.4,0c1.8,0,3.2,1.3,3.2,3s-1.4,3-3.2,3c-1.7,0-3.1-1.4-3.1-3s1.4-3,3.1-3M38.8,9.1v17.3h5.3V9.1h-5.3ZM49.2,3c0,1.7,1.4,3,3.1,3,1.8,0,3.2-1.3,3.2-3s-1.4-3-3.2-3c-1.7,0-3.1,1.4-3.1,3M49.7,9.1v17.3h5.3V9.1h-5.3ZM30.3,1.5l-4.7,18.4s-3.6-13.8-4.2-15.8-1.8-2.8-3.5-2.8-2.9.9-3.5,2.8c-.6,2-4.2,15.8-4.2,15.8L5.6,1.5H0s5.4,19.6,6.2,21.9c.6,1.8,1.9,3.2,3.9,3.2,2.3,0,3.4-1.7,3.9-3.2s4-14.5,4-14.5c0,0,3.5,13,4,14.5s1.6,3.2,3.9,3.2c2,0,3.4-1.5,3.9-3.2.8-2.3,6.2-21.9,6.2-21.9h-5.7Z"/>
  <path class="cls-3" d="M75,13.2c2,0,3.5-1.6,3.5-4V0h-7v9.2c0,2.5,1.5,4,3.5,4M84.8,0h-3v9.3c0,4.5-2.6,6.9-6.8,6.9s-6.8-2.4-6.8-6.9V0h-3c-2.2,0-3.5,1.3-3.5,3.5v11.4c0,3.3,1.7,5,5,5h16.5c3.3,0,5-1.7,5-5V3.5c.1-2.2-1.2-3.5-3.4-3.5"/>
</svg>