<svg version="1.1" id="svg2" xmlns:xlink="http://www.w3.org/1999/xlink" xmlns="http://www.w3.org/2000/svg" viewBox="45.6 24 308 353.6" style="max-height: 500px" width="308" height="353.6">
  <defs id="defs4">
    <linearGradient id="linearGradient3230">
      <stop id="stop3232" offset="0" style="stop-color:#7e82c5;stop-opacity:1;"/>
      <stop id="stop3234" offset="1" style="stop-color:#ffffff;stop-opacity:0;"/>
    </linearGradient>
    <linearGradient id="linearGradient3106">
      <stop id="stop3108" offset="0" style="stop-color:#8775ae;stop-opacity:1;"/>
      <stop id="stop3110" offset="1" style="stop-color:#d5cfe9;stop-opacity:1;"/>
    </linearGradient>
    <linearGradient id="linearGradient3097">
      <stop id="stop3099" offset="0" style="stop-color:#211b2c;stop-opacity:1;"/>
      <stop id="stop3101" offset="1" style="stop-color:#c0bdfb;stop-opacity:1;"/>
    </linearGradient>
    <linearGradient id="linearGradient3088">
      <stop id="stop3090" offset="0" style="stop-color:#261e32;stop-opacity:1;"/>
      <stop id="stop3092" offset="1" style="stop-color:#c3bbff;stop-opacity:1;"/>
    </linearGradient>
    <linearGradient id="linearGradient3079">
      <stop id="stop3081" offset="0" style="stop-color:#2a2136;stop-opacity:1;"/>
      <stop id="stop3083" offset="1" style="stop-color:#b38ee9;stop-opacity:1;"/>
    </linearGradient>
    <linearGradient gradientUnits="userSpaceOnUse" y2="460.87122" x2="578.65601" y1="319.25815" x1="333.375" id="linearGradient3085" xlink:href="#linearGradient3079"/>
    <linearGradient gradientUnits="userSpaceOnUse" y2="351.12585" x2="386.4375" y1="433.36218" x1="244" id="linearGradient3094" xlink:href="#linearGradient3088"/>
    <linearGradient gradientUnits="userSpaceOnUse" y2="474.1875" x2="386.4375" y1="322.36218" x1="195.71429" id="linearGradient3103" xlink:href="#linearGradient3097"/>
    <radialGradient gradientUnits="userSpaceOnUse" gradientTransform="matrix(-1.2564053e-7,1.0806429,-1.1868888,-1.3799317e-7,644.44113,-205.16919)" r="99.046875" fy="213.53397" fx="391" cy="213.53397" cx="391" id="radialGradient3112" xlink:href="#linearGradient3106"/>
    <linearGradient gradientTransform="translate(2.1875,0)" y2="474.1875" x2="386.4375" y1="322.36218" x1="195.71429" gradientUnits="userSpaceOnUse" id="linearGradient3127" xlink:href="#linearGradient3097"/>
    <linearGradient gradientTransform="translate(-147.07821,-19.091883)" y2="474.1875" x2="386.4375" y1="322.36218" x1="195.71429" gradientUnits="userSpaceOnUse" id="linearGradient3135" xlink:href="#linearGradient3097"/>
    <linearGradient y2="474.1875" x2="386.4375" y1="322.36218" x1="195.71429" gradientTransform="translate(2.1875,0)" gradientUnits="userSpaceOnUse" id="linearGradient3142" xlink:href="#linearGradient3097"/>
    <linearGradient y2="474.1875" x2="386.4375" y1="322.36218" x1="195.71429" gradientTransform="translate(2e-6,2.2e-5)" gradientUnits="userSpaceOnUse" id="linearGradient3145" xlink:href="#linearGradient3097"/>
    <radialGradient r="99.046875" fy="213.53397" fx="391" cy="213.53397" cx="391" gradientTransform="matrix(-1.2564053e-7,1.0806429,-1.1868888,-1.3799317e-7,644.44113,-205.10315)" gradientUnits="userSpaceOnUse" id="radialGradient3151" xlink:href="#linearGradient3106"/>
    <linearGradient gradientTransform="translate(0,4.9999999e-6)" y2="460.87122" x2="578.65601" y1="319.25815" x1="333.375" gradientUnits="userSpaceOnUse" id="linearGradient3159" xlink:href="#linearGradient3079"/>
    <linearGradient y2="474.1875" x2="386.4375" y1="322.36218" x1="195.71429" gradientTransform="translate(2e-6,2.2e-5)" gradientUnits="userSpaceOnUse" id="linearGradient3166" xlink:href="#linearGradient3097"/>
    <linearGradient y2="474.1875" x2="386.4375" y1="322.36218" x1="195.71429" gradientTransform="translate(223.03125,193.15624)" gradientUnits="userSpaceOnUse" id="linearGradient3176" xlink:href="#linearGradient3097"/>
    <radialGradient r="99.046875" fy="213.53397" fx="391" cy="213.53397" cx="391" gradientTransform="matrix(-1.2564053e-7,1.0806429,-1.1868888,-1.3799317e-7,867.47238,-11.94693)" gradientUnits="userSpaceOnUse" id="radialGradient3178" xlink:href="#linearGradient3106"/>
    <linearGradient y2="474.1875" x2="386.4375" y1="322.36218" x1="195.71429" gradientTransform="translate(223.03125,193.15624)" gradientUnits="userSpaceOnUse" id="linearGradient3182" xlink:href="#linearGradient3097"/>
    <linearGradient y2="474.1875" x2="386.4375" y1="322.36218" x1="195.71429" gradientTransform="translate(2e-6,2.2e-5)" gradientUnits="userSpaceOnUse" id="linearGradient3190" xlink:href="#linearGradient3097"/>
    <radialGradient r="99.046875" fy="213.53397" fx="391" cy="213.53397" cx="391" gradientTransform="matrix(-1.2564053e-7,1.0806429,-1.1868888,-1.3799317e-7,644.44113,-205.10315)" gradientUnits="userSpaceOnUse" id="radialGradient3192" xlink:href="#linearGradient3106"/>
    <linearGradient y2="460.87122" x2="578.65601" y1="319.25815" x1="333.375" gradientTransform="translate(0,4.9999999e-6)" gradientUnits="userSpaceOnUse" id="linearGradient3194" xlink:href="#linearGradient3079"/>
    <linearGradient y2="474.1875" x2="386.4375" y1="322.36218" x1="195.71429" gradientTransform="translate(2e-6,2.2e-5)" gradientUnits="userSpaceOnUse" id="linearGradient3196" xlink:href="#linearGradient3097"/>
    <radialGradient gradientUnits="userSpaceOnUse" gradientTransform="matrix(-0.515242,-1.4544781,1.9368377,-0.68611575,-813.69725,789.39767)" r="55.75" fy="424.02432" fx="42.137882" cy="424.02432" cx="42.137882" id="radialGradient3236" xlink:href="#linearGradient3230"/>
  </defs>
  
  <metadata id="metadata7">
    
      
        image/svg+xml
        
        
      
    
  </metadata>
  <g transform="translate(0,-652.36218)" id="layer1">
    <g transform="matrix(1.3459597,0,0,1.3459597,-320.10827,387.43829)" id="g3184">
      <path id="path3131" d="m 274.90625,281.03128 0,128.75 0.0312,0.0312 111.5,64.375 0,-44.28125 -39.0625,-22.5625 -34.09375,-19.6875 0,-39.375 0,-0.0312 -0.0312,-45.0625 -38.3437,-22.1562 z m 58.46875,34.03125 0,61.25 53.0625,30.65625 0,-61.28125 z" style="fill:url(#linearGradient3190);fill-opacity:1;fill-rule:nonzero;stroke:none"/>
      <path style="fill:url(#radialGradient3192);fill-opacity:1;fill-rule:nonzero;stroke:none" d="m 386.40625,216.65625 -111.5,64.375 38.34375,22.15625 39.0625,-22.5625 34.125,-19.6875 34.09375,19.6875 0.0312,0.0312 14.125,8.125 38.3125,-22.125 -86.5625,-50 -0.0312,0 z m 0,67.84375 -53.03125,30.625 53.0625,30.625 0,-0.0625 52.875,-30.65625 L 386.40625,284.5 z m -53.03125,91.875 0,0.0312 53.03125,30.625 L 333.375,376.375 z" id="path3008"/>
      <path id="path3153" d="m 497.9375,281.03125 -111.5,64.65625 0,0.5625 0,60.71875 53.0625,-30.65625 0,-16.4375 20.09375,-11.59375 0,39.375 -73.15625,42.25 0,44.28125 111.5,-64.375 z" style="fill:url(#linearGradient3194);fill-opacity:1;fill-rule:nonzero;stroke:none"/>
      <path style="fill:url(#linearGradient3196);fill-opacity:1;fill-rule:nonzero;stroke:none" d="m 274.90625,281.03128 0,128.75 0.0312,0.0312 111.5,64.375 0,-44.28125 -39.0625,-22.5625 -34.09375,-19.6875 0,-39.375 0,-0.0312 -0.0312,-45.0625 -38.3437,-22.1562 z m 58.46875,34.03125 0,61.25 53.0625,30.65625 0,-61.28125 z" id="path3155"/>
    </g>
  </g>
</svg>