<svg id="svg2" version="1.1" xmlns="http://www.w3.org/2000/svg" viewBox="0 86.53555698 476.4988699072356 378.70937302" style="max-height: 500px" width="476.4988699072356" height="378.70937302">
  <metadata id="metadata58">
    
      
        image/svg+xml
        
      
    
  </metadata>
  <defs id="defs56"/>
  
  <g id="g4" transform="matrix(2.4919039,0,0,2.4919039,1,1)">
    <path id="path6" d="m 111.6,82.6 4.4,-5 0,-33.8 -21,8.1 0,0 -17.4,31 17.4,-6.7 z" style="fill:#0222a9"/>
    <path id="path8" d="m 148.9,129.7 0,-57 21.3,-8.2 0,89.7 -21.3,9 0,0 -31.3,-40.9 0,54.1 -22.6,9.5 0,-92.4 22.6,-8.6 z" style="fill:#011da9"/>
    <path id="path10" d="m 61.1,154.3 -20,-38.8 0,47.7 0,0 z" style="fill:#0222a9"/>
    <path id="path12" d="m 62.4,64.5 0,0 10,20.4 5.2,-2 17.4,-31 -21,-8.2 z" style="fill:#069330"/>
    <path id="path14" d="m 111.6,82.6 0,0 16,-18.1 21.3,8.2 0,57 -31.3,-44.8 z" style="fill:#069330"/>
    <path id="path16" d="m 95,185.9 0,-92.4 -22.6,-8.6 0,46.9 -31.4,-59.1 0,0 -21.3,-8.2 0,89.7 21.3,9 0,-47.7 31.4,60.9 z" style="fill:#069330"/>
    <path id="path18" d="m 41.1,72.7 21.3,-8.2 10,20.4 0,0 0,46.9 z" style="fill:#fe2015"/>
    <path id="path20" d="m 117.6,144.6 6.4,9 24.9,9.6 0,0 -31.3,-40.9 z" style="fill:#fe2015"/>
    <path id="path22" d="m 72.5,84.9 22.6,-8.6 22.6,8.6 0,0 -22.6,8.6 z" style="fill:#ffc001"/>
    <path id="path24" d="m 148.9,56.3 21.3,8.2 -21.3,8.2 -21.3,-8.2 0,0 z" style="fill:#ffc001"/>
    <path id="path26" d="m 41.1,56.3 21.3,8.2 -21.3,8.2 -21.3,-8.2 0,0 z" style="fill:#ffc001"/>
    <path id="path28" d="m 95,35.6 -21,8.1 21,8.2 21,-8.1 0,0 z" style="fill:#ffc001"/>
    <path id="path30" d="m 125.2,6.6 9.7,0 c 8.3,0 10.9,4.7 10.9,11.1 0,6.6 -4.1,10.7 -10.4,10.7 l -10.2,0 0,-21.8 0,0 z m 8,16.9 0.8,0 c 1.3,0 2.2,-0.4 2.7,-1.3 0.5,-0.9 0.6,-2.6 0.6,-4.7 0,-2.1 -0.1,-3.8 -0.6,-4.7 -0.5,-0.9 -1.4,-1.3 -2.7,-1.3 l -0.8,0 0,11.9 0,0 z" style="fill:#0124a6"/>
    <path id="path32" d="m 158.6,6 c 7.1,0 10.7,4.7 10.7,11.5 0,6.8 -3.5,11.5 -10.7,11.5 -7.1,0 -10.7,-4.7 -10.7,-11.5 0,-6.8 3.5,-11.5 10.7,-11.5 l 0,0 z m 0,17.4 c 1.3,0 2.2,-0.6 2.2,-6 0,-5.2 -0.9,-6 -2.2,-6 -1.3,0 -2.2,0.7 -2.2,6 2.7e-4,5.3 0.9,6 2.2,6 l 0,0 z" style="fill:#0124a6"/>
    <path id="path34" d="m 173.1,23.8 c -1.4,0 -2.6,1.2 -2.6,2.6 0,1.4 1.2,2.6 2.6,2.6 1.4,0 2.6,-1.2 2.6,-2.6 0,-1.4 -1.2,-2.6 -2.6,-2.6 l 0,0 z m 0,4.7 c -1.2,0 -2.1,-1 -2.1,-2.1 0,-1.2 1,-2.1 2.1,-2.1 1.2,0 2.1,1 2.1,2.1 0,1.2 -1,2.1 -2.1,2.1 l 0,0 z" style="fill:#0124a6"/>
    <path id="path36" d="m 172.7,27.8 -0.6,0 0,-2.8 1.2,0 c 0.5,0 1,0.2 1,0.7 0,0.4 -0.2,0.6 -0.6,0.7 l 0,0 c 0.5,0.1 0.5,0.3 0.5,0.7 0,0.2 0.1,0.5 0.2,0.7 l -0.7,0 c -0.1,-0.3 -0.1,-0.5 -0.1,-0.8 0,-0.2 -0.1,-0.4 -0.3,-0.4 l -0.6,0 0,1.1 0,0 z m 0,-1.6 0.5,0 c 0.3,0 0.4,-0.1 0.4,-0.4 0,-0.3 -0.2,-0.4 -0.4,-0.4 l -0.5,0 0,0.8 0,0 z" style="fill:#0124a6"/>
    <path id="path38" d="m 14.3,6.6 0,12.5 -0.1,0 -4.4,-12.5 -9.8,0 0,21.8 6.6,0 0,-12.6 0.1,0 4.4,12.6 0,0 9.8,0 0,-21.8 z" style="fill:#0124a6"/>
    <path id="path40" d="m 51.3,6.6 0,12.5 -0.1,0 -4.4,-12.5 -9.8,0 0,21.8 6.6,0 0,-12.6 0.1,0 4.4,12.6 0,0 9.8,0 0,-21.8 z" style="fill:#0124a6"/>
    <path id="path42" d="m 115,6.6 0,12.5 -0.1,0 -4.4,-12.5 -9.8,0 0,21.8 6.6,0 0,-12.6 0.1,0 4.4,12.6 0,0 9.8,0 0,-21.8 z" style="fill:#0124a6"/>
    <path id="path44" d="m 33.1,6.6 0,21.8 -8.2,0 0,-21.8 0,0 z" style="fill:#0124a6"/>
    <path id="path46" d="m 65.5,28.4 0,-15.9 0,0 -5.2,0 0,-5.9 18.6,0 0,5.9 -5.2,0 0,15.9 z" style="fill:#0124a6"/>
    <path id="path48" d="m 89.4,12.4 0,2.3 7.5,0 0,5.6 -7.5,0 0,2.4 8.4,0 0,5.7 -16.4,0 0,-21.8 0,0 16.2,0 0,5.8 z" style="fill:#0124a6"/>
    <path id="path50" d="m 184,3.7 c -0.4,0 -0.9,0 -1.5,0 -3.5,0.2 -4.8,1.6 -5.3,3.3 l 0.1,0 c 0.9,-0.8 1.9,-1.1 3.3,-1.1 2.7,0 5.2,2 5.2,5.7 0,3.6 -2.7,6.4 -6.4,6.4 -4.9,0 -7,-3.7 -7,-7.7 0,-3.2 1.1,-6 3,-7.7 1.8,-1.7 4.1,-2.5 6.9,-2.6 0.7,0 1.2,0 1.6,0 l 0,3.7 -2.7e-4,0 z m -4.6,10.8 c 1.1,0 1.8,-1.1 1.8,-2.6 0,-1.2 -0.6,-2.6 -2.1,-2.6 -0.9,0 -1.6,0.6 -1.9,1.3 -0.1,0.2 -0.1,0.5 -0.1,1 0.1,1.4 0.8,2.9 2.3,2.9 l 0,0 0,0 z" style="fill:#ff2d1e"/>
    <path id="path52" d="m 194.4,17.7 0,-3.9 -7.3,0 0,-3.1 5.8,-10.4 5.8,0 0,10 1.8,0 0,3.6 -1.8,0 0,3.9 -4.4,0 0,0 z m 0,-7.5 0,-3 c 0,-1.1 0.1,-2.3 0.1,-3.5 l -0.1,0 c -0.5,1.2 -1,2.3 -1.6,3.5 l -1.4,2.9 0,0.1 3,0 0,-2.7e-4 z" style="fill:#ff2d1e"/>
  </g>
</svg>