<?xml version="1.0" encoding="UTF-8"?>
<svg id="Layer_1" data-name="Layer 1" xmlns="http://www.w3.org/2000/svg" xmlns:xlink="http://www.w3.org/1999/xlink" viewBox="0 0 460.21 296.64">
  <defs>
    <style>
      .cls-1 {
        fill: url(#linear-gradient-2);
      }

      .cls-2, .cls-3 {
        fill: none;
        stroke: #333;
      }

      .cls-2, .cls-3, .cls-4 {
        stroke-linecap: round;
        stroke-linejoin: round;
      }

      .cls-5 {
        fill: url(#radial-gradient);
      }

      .cls-6 {
        fill: url(#radial-gradient-2);
      }

      .cls-3 {
        stroke-width: 1.44px;
      }

      .cls-7 {
        fill: #ccc;
      }

      .cls-8 {
        fill: url(#White_Black-2);
      }

      .cls-9 {
        fill: url(#linear-gradient);
      }

      .cls-4 {
        fill: url(#radial-gradient-3);
        stroke: #33317a;
        stroke-width: 2.88px;
      }

      .cls-10 {
        fill: url(#White_Black);
      }
    </style>
    <radialGradient id="radial-gradient" cx="378.05" cy="133.81" fx="378.05" fy="133.81" r="62.01" gradientUnits="userSpaceOnUse">
      <stop offset=".43" stop-color="#fff"/>
      <stop offset=".64" stop-color="#7a7a7a"/>
      <stop offset=".99" stop-color="#000"/>
    </radialGradient>
    <radialGradient id="White_Black" data-name="White, Black" cx="78.05" cy="225.82" fx="78.05" fy="225.82" r="64" gradientUnits="userSpaceOnUse">
      <stop offset="0" stop-color="#fff"/>
      <stop offset="1" stop-color="#000"/>
    </radialGradient>
    <radialGradient id="radial-gradient-2" cx="109.72" cy="91.15" fx="109.72" fy="91.15" r="146.64" gradientUnits="userSpaceOnUse">
      <stop offset=".81" stop-color="#fff"/>
      <stop offset="1" stop-color="#575757"/>
    </radialGradient>
    <radialGradient id="White_Black-2" data-name="White, Black" cx="393.06" cy="-11.18" fx="393.06" fy="-11.18" r="82" xlink:href="#White_Black"/>
    <linearGradient id="linear-gradient" x1="88.61" y1="110.77" x2="63.61" y2="91.77" gradientUnits="userSpaceOnUse">
      <stop offset="0" stop-color="#000"/>
      <stop offset="1" stop-color="#fff"/>
    </linearGradient>
    <radialGradient id="radial-gradient-3" cx="255.14" cy="85.4" fx="255.14" fy="85.4" r="133" gradientTransform="translate(172.58 -120) rotate(45)" gradientUnits="userSpaceOnUse">
      <stop offset=".04" stop-color="#fff"/>
      <stop offset=".04" stop-color="#fff"/>
      <stop offset=".23" stop-color="#6e93e1"/>
      <stop offset="1" stop-color="#363499"/>
    </radialGradient>
    <linearGradient id="linear-gradient-2" x1="246.93" y1="163.07" x2="236.92" y2="130.37" gradientUnits="userSpaceOnUse">
      <stop offset="0" stop-color="#000"/>
      <stop offset=".99" stop-color="#fff"/>
    </linearGradient>
  </defs>
  <path class="cls-5" d="M404.6,115.52c4.44-.42,7.65-.43,9.63-.04v.29c6.33,4.03,9.79,8.07,10.08,12.67-2.31,7.2-9.51,15.27-21.03,24.2-13.82,10.36-32.83,21.02-56.16,31.96-10.59,4.83-21.74,9.47-33.46,13.98-13.45,5.18-11.43,41.17-1.56,37.59,17.61-6.38,34.11-13.16,49.42-20.17,25.92-12.1,46.95-23.91,62.79-36,20.16-15.56,31.68-30.24,33.69-44.36,3.73-13.65.47-25.81-9.88-36.81-4.06-4.32-45.53,16.88-43.52,16.69Z"/>
  <path class="cls-10" d="M171.1,239.1c-10.12,1.91-19.96,3.58-29.61,5.12l.29-.29c-19.58,2.88-36.58,4.32-51.26,4.61h-.29c-12.67,0-22.47-.86-28.8-3.17-4.32-1.73-8.64-1.44-12.96.58-4.61,1.73-7.49,5.18-9.22,9.5-1.73,4.61-1.44,8.93.58,13.25,2.01,4.32,5.18,7.49,9.5,9.22,9.22,3.45,22.75,5.18,41.47,5.18,15.84-.29,34.28-1.73,55.59-4.9h.29c10.65-1.48,21.6-3.33,32.82-5.5,10.62-2.04,2.33-35.62-8.4-33.6Z"/>
  <path class="cls-6" d="M168.85,53.58c-9.74,3.23-19.24,6.59-28.51,10.06-21.6,8.36-40.9,16.71-58.18,25.64h.29c-18.72,9.5-33.98,18.72-45.79,28.51v-.29c-14.4,11.23-24.19,22.18-29.38,32.54v.29c-8.06,14.69-8.64,28.23-2.01,40.9,4.03,12.38,16.41,19.01,37.44,20.16,12.09.86,28.51-.87,49.25-4.9,10.42-2.15,22.3-5.1,35.71-8.68,8.08-2.16-1.53-35.42-9.49-33.26-12.34,3.36-23.33,6.03-33.14,7.96-16.99,3.45-30.24,4.89-40.32,4.32-4.03,0-6.91-.29-8.06-.29l-.29-.29c-.86-2.88-.57-6.33,1.44-9.79v-.29c3.75-6.62,10.37-13.82,20.16-21.31,10.66-8.35,23.91-16.7,40.03-24.77,16.13-8.64,34.28-16.41,54.44-24.19v.29c5.71-2.15,11.52-4.26,17.41-6.31,14.62-5.08,11.03-40.28-1-36.3Z"/>
  <path class="cls-7" d="M312.32,55.44c11.12-1.43,21.97-2.43,32.5-3.03,20.74-1.73,39.46-1.44,55.87.29,4.9.58,8.93-.86,12.67-3.74,3.75-3.17,5.76-6.92,6.34-11.52.58-4.9-.86-9.22-3.74-12.68-3.17-3.74-6.92-6.04-11.52-6.33-18.44-2.02-39.17-2.02-61.92-.58-14.61.99-29.75,2.65-45.53,4.99-7.25,1.07,5.17,33.9,15.33,32.6Z"/>
  <path class="cls-8" d="M312.32,55.44c11.12-1.43,21.97-2.43,32.5-3.03,20.74-1.73,39.46-1.44,55.87.29,4.9.58,8.93-.86,12.67-3.74,3.75-3.17,5.76-6.92,6.34-11.52.58-4.9-.86-9.22-3.74-12.68-3.17-3.74-6.92-6.04-11.52-6.33-18.44-2.02-39.17-2.02-61.92-.58-14.61.99-29.75,2.65-45.53,4.99-7.25,1.07,5.17,33.9,15.33,32.6Z"/>
  <path class="cls-9" d="M24.8,159.39c0,18.67,11.95,17.31,11.93,17.16,0,0-.02,0-.07,0l-.29-.29c-.86-2.88-.57-6.33,1.44-9.79v-.29c3.75-6.62,10.37-13.82,20.16-21.31,10.66-8.35,23.91-16.7,40.03-24.77,16.13-8.64,34.28-16.41,54.44-24.19v.29c5.71-2.15,11.52-4.26,17.41-6.31,6.44-2.24,9.35-10.33,9.56-18.33-7.53-1.03-15.29-1.57-23.23-1.57-17.16,0-33.51,2.52-48.37,7.07-9.01,3.99-17.55,8.04-25.65,12.23h.29c-5.83,2.96-11.32,5.89-16.49,8.82-20.84,15.98-41.16,37.63-41.16,61.29Z"/>
  <path class="cls-3" d="M419.7,37.44c.58-4.9-.86-9.22-3.74-12.68-3.17-3.74-6.92-6.04-11.52-6.33-18.44-2.02-39.17-2.02-61.92-.58-21.32,1.44-43.78,4.32-67.68,8.64-22.76,4.03-45.8,9.51-68.84,15.84-23.04,6.34-44.92,13.54-65.66,21.31-21.6,8.36-40.9,16.71-58.18,25.64h.29c-18.72,9.5-33.98,18.72-45.79,28.51v-.29c-14.4,11.23-24.19,22.18-29.38,32.54v.29c-8.06,14.69-8.64,28.23-2.01,40.9,4.03,12.38,16.19,18.11,37.22,19.26,12.09.86,28.73.03,49.47-4,16.7-3.45,37.15-8.93,61.63-15.84,17.85-5.47,40.61-12.67,68.25-21.89l68.55-22.46c25.05-8.35,45.5-14.69,61.34-19.01,19.3-5.76,34.56-9.21,46.08-10.94,8.07-1.15,13.54-1.44,16.42-.87v.29c6.33,4.03,9.79,8.07,10.08,12.67-2.31,7.2-9.51,15.27-21.03,24.2-13.82,10.36-32.83,21.02-56.16,31.96-22.75,10.37-48.09,19.88-76.03,29.09h-.29c-21.6,6.91-43.77,12.96-66.52,18.43-22.18,5.19-42.92,8.93-62.79,12.1l.29-.29c-19.58,2.88-36.58,4.32-51.26,4.61h-.29c-12.67,0-22.47-.86-28.8-3.17-4.32-1.73-8.64-1.44-12.96.58-4.61,1.73-7.49,5.18-9.22,9.5-1.73,4.61-1.44,8.93.58,13.25,2.01,4.32,5.18,7.49,9.5,9.22,9.22,3.45,22.75,5.18,41.47,5.18,15.84-.29,34.28-1.73,55.59-4.9h.29c20.73-2.88,42.62-7.2,65.37-12.38h.29c23.62-5.76,46.66-12.1,69.12-19.3,29.38-9.21,56.16-19.58,80.06-30.52,25.92-12.1,46.95-23.91,62.79-36,20.16-15.56,31.68-30.24,33.69-44.36,5.19-19-3.16-35.13-25.34-49.24-6.91-5.48-19.87-6.92-39.46-4.32h-.28c-12.68,2.01-29.67,5.76-50.69,11.8-16.13,4.61-36.87,10.95-62.79,19.59l-68.54,22.46c-27.36,8.93-49.54,16.13-67.1,21.31-23.33,6.92-42.63,12.1-58.76,15.27-16.99,3.45-30.24,4.89-40.32,4.32-4.03,0-6.91-.29-8.06-.29l-.29-.29c-.86-2.88-.57-6.33,1.44-9.79v-.29c3.75-6.62,10.37-13.82,20.16-21.31,10.66-8.35,23.91-16.7,40.03-24.77,16.13-8.64,34.28-16.41,54.44-24.19v.29c19.87-7.49,40.89-14.4,62.78-20.45,22.18-6.34,44.06-11.52,65.95-15.26,22.18-4.32,43.49-6.92,63.65-8.07,20.74-1.73,39.46-1.44,55.87.29,4.9.58,8.93-.86,12.67-3.74,3.75-3.17,5.76-6.92,6.34-11.52Z"/>
  <circle class="cls-4" cx="231.14" cy="148.32" r="146.88" transform="translate(-37.18 206.88) rotate(-45)"/>
  <path class="cls-1" d="M83.67,172.92c-1.69.33-46.06,10.03-53.4,2.69-2.15-2.15,4.67,3.34,11.62,12.38.88,1.15.31,3.06-.72,5.41-.24.54-.49.71-.93,1.29-.21.28-.27,1.39-.3,1.67-.11.9-.59,1.61-.72,2.41-.42,2.52-1.9,4.53-2.22,6.13-.12.61.78,1.16.72,1.66-.06.54-1.15.67-1.11,1.09.04.42-1.23.57-1.12.92.03.1-.04.45.19.5.86.2,2.9.4,3.19.44.44.06,4.39.64,10.06.69,5.67.04,12.64.05,18.75-.62,3.74-.41,7.64-.94,11.3-1.48,4.82-.71,9.23-1.43,12.34-1.92,2.89-.46,4.18-.12,4.59-.08,15.92-3.47,35.03-8.62,57.56-14.98,17.85-5.47,40.61-12.67,68.25-21.89l68.55-22.46c13.82-4.61,26.24-8.6,37.26-11.98,8.96-2.75,16.98-5.09,24.08-7.03,8.74-2.6,16.64-4.73,23.75-6.45,8.6-2.08,16.02-3.55,22.33-4.49,8.07-1.15,13.54-1.44,16.42-.87v.29c2.43,1.55,13.03.32,18.39,8.42,8.63,13.04,12.86,36.52,16.38,31.7,5.03-6.89,8.06-13.63,9-20.25,5.19-19-3.16-34.41-25.34-48.52-6.91-5.48-19.87-6.92-39.46-4.32h-.28c-7.68,1.22-16.95,3.08-27.74,5.7-7.01,1.7-14.67,3-22.95,5.38-8,2.29-17.14,5-27.48,8.21-10.5,3.26-22.24,7.02-35.31,11.38l-68.54,22.46c-19.39,6.33-36.17,11.79-50.56,16.28l-76.55,20.25Z"/>
  <path class="cls-2" d="M367.28,86.98c-7.01,1.7-16.78,4.52-25.06,6.9-16.13,4.61-36.87,10.95-62.79,19.59l-68.54,22.46c-20.86,6.81-38.51,12.32-53.59,16.72-6.55,1.91-11.15,2.93-13.5,3.62-22.77,6.75-78.52,22.99-100.17,20.62"/>
  <path class="cls-2" d="M91.55,206.49c15.92-3.47,39.51-9.48,62.04-15.84,17.85-5.47,40.61-12.67,68.25-21.89l68.55-22.46c25.05-8.35,45.5-14.69,61.34-19.01,8.74-2.6,18.81-5.09,25.92-6.81"/>
</svg>