<?xml version="1.0" encoding="UTF-8"?>
<svg id="Calque_1" data-name="Calque 1" xmlns="http://www.w3.org/2000/svg" xmlns:xlink="http://www.w3.org/1999/xlink" viewBox="0 0 1948.5 1948.5">
  <defs>
    <style>
      .cls-1 {
        fill: url(#Dégradé_sans_nom_7);
      }

      .cls-2 {
        fill: url(#Dégradé_sans_nom_6);
      }

      .cls-3 {
        fill: none;
      }

      .cls-4 {
        fill: url(#Dégradé_sans_nom_2);
      }

      .cls-5 {
        fill: url(#Dégradé_sans_nom);
      }

      .cls-6 {
        fill: url(#Dégradé_sans_nom_9);
      }

      .cls-7 {
        fill: url(#Dégradé_sans_nom_4);
      }

      .cls-8 {
        fill: url(#Dégradé_sans_nom_3);
      }

      .cls-9 {
        fill: url(#Dégradé_sans_nom_5);
      }

      .cls-10 {
        fill: url(#Dégradé_sans_nom_10);
      }

      .cls-11 {
        clip-path: url(#clippath);
      }

      .cls-12 {
        fill: url(#Dégradé_sans_nom_8);
      }
    </style>
    <clipPath id="clippath">
      <circle class="cls-3" cx="974.25" cy="974.25" r="974.25"/>
    </clipPath>
    <linearGradient id="Dégradé_sans_nom" data-name="Dégradé sans nom" x1="54.5" y1="-213.8" x2="96.72" y2="-256.01" gradientTransform="translate(-374.23 3968.33) scale(13.17)" gradientUnits="userSpaceOnUse">
      <stop offset=".17" stop-color="#c9ca4c"/>
      <stop offset=".42" stop-color="#c8c94c"/>
      <stop offset=".58" stop-color="#c2c74d"/>
      <stop offset=".71" stop-color="#b9c350"/>
      <stop offset=".83" stop-color="#abbd52"/>
      <stop offset=".94" stop-color="#9ab656"/>
      <stop offset="1" stop-color="#90b258"/>
    </linearGradient>
    <linearGradient id="Dégradé_sans_nom_2" data-name="Dégradé sans nom 2" x1="106.88" y1="-255.96" x2="148.92" y2="-213.93" gradientTransform="translate(-374.23 3968.33) scale(13.17)" gradientUnits="userSpaceOnUse">
      <stop offset="0" stop-color="#637e3e"/>
      <stop offset=".08" stop-color="#78974a"/>
      <stop offset=".15" stop-color="#89ab54"/>
      <stop offset=".19" stop-color="#90b258"/>
      <stop offset=".2" stop-color="#93b357"/>
      <stop offset=".23" stop-color="#a3ba54"/>
      <stop offset=".27" stop-color="#b2c051"/>
      <stop offset=".31" stop-color="#bdc54f"/>
      <stop offset=".36" stop-color="#c4c84d"/>
      <stop offset=".44" stop-color="#c8ca4c"/>
      <stop offset=".64" stop-color="#c9ca4c"/>
    </linearGradient>
    <linearGradient id="Dégradé_sans_nom_3" data-name="Dégradé sans nom 3" x1="103.29" y1="-224.96" x2="146.81" y2="-181.43" gradientTransform="translate(-374.23 3968.33) scale(13.17)" gradientUnits="userSpaceOnUse">
      <stop offset="0" stop-color="#66813f"/>
      <stop offset=".23" stop-color="#90b258"/>
      <stop offset=".26" stop-color="#96b457"/>
      <stop offset=".38" stop-color="#a8bc53"/>
      <stop offset=".51" stop-color="#b7c250"/>
      <stop offset=".64" stop-color="#c1c74e"/>
      <stop offset=".8" stop-color="#c8c94c"/>
      <stop offset="1" stop-color="#c9ca4c"/>
    </linearGradient>
    <linearGradient id="Dégradé_sans_nom_4" data-name="Dégradé sans nom 4" x1="100.65" y1="-224.6" x2="57.12" y2="-181.07" gradientTransform="translate(-374.23 3968.33) scale(13.17)" gradientUnits="userSpaceOnUse">
      <stop offset="0" stop-color="#577036"/>
      <stop offset=".27" stop-color="#90b258"/>
      <stop offset=".32" stop-color="#9ab656"/>
      <stop offset=".41" stop-color="#abbd53"/>
      <stop offset=".51" stop-color="#b9c350"/>
      <stop offset=".62" stop-color="#c2c74d"/>
      <stop offset=".76" stop-color="#c8c94c"/>
      <stop offset=".96" stop-color="#c9ca4c"/>
    </linearGradient>
    <linearGradient id="Dégradé_sans_nom_5" data-name="Dégradé sans nom 5" x1="52.28" y1="-263.83" x2="85.36" y2="-263.83" gradientTransform="translate(-374.23 3968.33) scale(13.17)" gradientUnits="userSpaceOnUse">
      <stop offset="0" stop-color="#000"/>
      <stop offset="0" stop-color="#839363"/>
      <stop offset=".23" stop-color="#707e57"/>
      <stop offset=".57" stop-color="#586346"/>
      <stop offset=".84" stop-color="#475039"/>
      <stop offset="1" stop-color="#404934"/>
    </linearGradient>
    <linearGradient id="Dégradé_sans_nom_6" data-name="Dégradé sans nom 6" x1="101.83" y1="-262.83" x2="144" y2="-262.83" gradientTransform="translate(-374.23 3968.33) scale(13.17)" gradientUnits="userSpaceOnUse">
      <stop offset="0" stop-color="#49503d"/>
      <stop offset="1" stop-color="#78875b"/>
    </linearGradient>
    <linearGradient id="Dégradé_sans_nom_7" data-name="Dégradé sans nom 7" x1="116.12" y1="-212.78" x2="164.44" y2="-212.78" gradientTransform="translate(-374.23 3968.33) scale(13.17)" gradientUnits="userSpaceOnUse">
      <stop offset="0" stop-color="#434a39"/>
      <stop offset=".17" stop-color="#4b533f"/>
      <stop offset=".46" stop-color="#5e684d"/>
      <stop offset=".85" stop-color="#78865d"/>
      <stop offset="1" stop-color="#839363"/>
    </linearGradient>
    <linearGradient id="Dégradé_sans_nom_8" data-name="Dégradé sans nom 8" x1="32.12" y1="-212.31" x2="78.09" y2="-212.31" gradientTransform="translate(-374.23 3968.33) scale(13.17)" gradientUnits="userSpaceOnUse">
      <stop offset="0" stop-color="#739148"/>
      <stop offset="1" stop-color="#64724c"/>
    </linearGradient>
    <radialGradient id="Dégradé_sans_nom_9" data-name="Dégradé sans nom 9" cx="101.89" cy="-229.37" fx="101.89" fy="-229.37" r="106.62" gradientTransform="translate(-374.23 3968.33) scale(13.17)" gradientUnits="userSpaceOnUse">
      <stop offset="0" stop-color="#fff"/>
      <stop offset="0" stop-color="#f4f5f5"/>
      <stop offset=".12" stop-color="#b6b8ba"/>
      <stop offset=".23" stop-color="#86888a"/>
      <stop offset=".32" stop-color="#636466"/>
      <stop offset=".4" stop-color="#464547"/>
      <stop offset=".47" stop-color="#212122"/>
      <stop offset=".51" stop-color="#000"/>
    </radialGradient>
    <radialGradient id="Dégradé_sans_nom_10" data-name="Dégradé sans nom 10" cx="102.01" cy="-229.41" fx="102.01" fy="-229.41" r="108.18" gradientTransform="translate(-374.23 3968.33) scale(13.17)" gradientUnits="userSpaceOnUse">
      <stop offset="0" stop-color="#fff"/>
      <stop offset=".25" stop-color="#87888b"/>
      <stop offset=".44" stop-color="#000"/>
    </radialGradient>
  </defs>
  <g class="cls-11">
    <g>
      <path d="M-273.25-57.25h2500v2500H-273.25V-57.25Z"/>
      <path d="M1999.19,1713.69V107.02H-31.72v1606.67h2030.91,0Z"/>
      <path class="cls-5" d="M968.02,678.43L407.75,416.58v785.56l560.27-2.03v-521.68Z"/>
      <path class="cls-4" d="M1523.19,416.59l-555.49,261.84v523.72h555.49V416.59Z"/>
      <path class="cls-8" d="M1618.83,1506.44v-69l-460.79-588.68v657.69h460.79Z"/>
      <path class="cls-7" d="M780.27,1510.34v-657.68l-460.79,588.68v69h460.79Z"/>
      <path class="cls-9" d="M282.92,309l94.39,87.29c136.01,99.46,332.91,192.83,590.72,282.15v-48.73L282.92,309Z"/>
      <path class="cls-2" d="M1523.19,416.59l66.98-81.2-622.64,294.21.13,48.82c272.02-111.66,457.08-198.94,555.53-261.84h0Z"/>
      <path class="cls-1" d="M1155.97,789.93l2.02,63.94c148.18,213.15,307.54,417.16,476.02,613.04l158.35,75.11-636.38-752.09h-.01Z"/>
      <path class="cls-12" d="M780.16,857.08l1.01-65.97L178.31,1553.33l112.66-68.02c138.03-130.9,301.43-339.98,489.19-628.23h0Z"/>
      <path class="cls-6" d="M1409.52,1143.28c115.71,149.19,246.64,293.33,395.82,433.37l-22.31-1451.37c-317.68,348.13-526.76,570.42-627.24,664.79,103.53,150.22,187.74,267.96,253.73,353.22h0Z"/>
      <path class="cls-10" d="M1422.34,437.9c140.05-71.07,229.38-140.07,269.98-204l-764.67-90.82-720.22,63.39c62.93,86.28,173.56,169.52,331.89,247.66,59.87,30.45,130.93,61.91,215.15,95.39,33.51,13.21,105.56,41.63,213.15,83.22,198.94-76.1,350.17-140.04,454.72-194.84h0Z"/>
      <path d="M167.22,107.02h-49.74l4.07,1480.81c81.2-59.86,175.59-154.26,285.19-284.16,122.8-145.15,246.63-315.67,374.53-512.55l-182.69-176.61c-65.97-65.98-121.8-121.8-165.45-170.52-97.43-104.55-185.74-217.22-265.91-336.96h0Z"/>
      <path d="M-32.14,1650.55v62.91h2030.91v-45.69c-156.31-89.3-293.32-172.53-411.05-248.66-226.35-149.19-433.38-305.5-620.14-470.95-183.7,181.7-387.71,343.06-614.04,484.16-103.52,64.97-224.3,132.95-363.36,207.05l-22.32,11.17h0Z"/>
    </g>
  </g>
</svg>