<svg viewBox="0 9.491 189.82 123.00336" xmlns="http://www.w3.org/2000/svg" style="max-height: 500px" width="189.82" height="123.00336"><path d="M0 0h189.82v189.82H0z"/><path d="M172.542 134.464V12.473H18.339v121.991h154.203z"/><linearGradient y2="49.626" x2="89.075" y1="91.84" x1="46.861" gradientUnits="userSpaceOnUse" id="a"><stop stop-color="#c9ca4c" offset=".17"/><stop stop-color="#c8c94c" offset=".418"/><stop stop-color="#c2c74d" offset=".578"/><stop stop-color="#b9c350" offset=".713"/><stop stop-color="#abbd52" offset=".834"/><stop stop-color="#9ab656" offset=".944"/><stop stop-color="#90b258" offset="1"/></linearGradient><path fill="url(#a)" d="M94.247 55.859l-42.54-19.882v59.646l42.54-.154v-39.61z"/><linearGradient y2="91.714" x2="141.224" y1="49.682" x1="99.192" gradientUnits="userSpaceOnUse" id="b"><stop stop-color="#637e3e" offset="0"/><stop stop-color="#78974a" offset=".077"/><stop stop-color="#89ab54" offset=".151"/><stop stop-color="#90b258" offset=".192"/><stop stop-color="#93b357" offset=".197"/><stop stop-color="#a3ba54" offset=".229"/><stop stop-color="#b2c051" offset=".266"/><stop stop-color="#bdc54f" offset=".309"/><stop stop-color="#c4c84d" offset=".362"/><stop stop-color="#c8ca4c" offset=".437"/><stop stop-color="#c9ca4c" offset=".644"/></linearGradient><path fill="url(#b)" d="M136.4 35.978L94.223 55.859v39.765H136.4V35.978z"/><linearGradient y2="124.205" x2="139.121" y1="80.681" x1="95.597" gradientUnits="userSpaceOnUse" id="c"><stop stop-color="#66813f" offset="0"/><stop stop-color="#90b258" offset=".226"/><stop stop-color="#96b457" offset=".259"/><stop stop-color="#a8bc53" offset=".379"/><stop stop-color="#b7c250" offset=".507"/><stop stop-color="#c1c74e" offset=".644"/><stop stop-color="#c8c94c" offset=".798"/><stop stop-color="#c9ca4c" offset="1"/></linearGradient><path fill="url(#c)" d="M143.662 118.728v-5.239l-34.987-44.697v49.937h34.987z"/><linearGradient y2="124.565" x2="49.484" y1="81.041" x1="93.008" gradientUnits="userSpaceOnUse" id="d"><stop stop-color="#577036" offset="0"/><stop stop-color="#90b258" offset=".271"/><stop stop-color="#9ab656" offset=".316"/><stop stop-color="#abbd53" offset=".409"/><stop stop-color="#b9c350" offset=".511"/><stop stop-color="#c2c74d" offset=".623"/><stop stop-color="#c8c94c" offset=".756"/><stop stop-color="#c9ca4c" offset=".961"/></linearGradient><path fill="url(#d)" d="M79.992 119.024V69.088l-34.987 44.697v5.239h34.987z"/><linearGradient y2="41.834" x2="77.689" y1="41.834" x1="44.61" gradientUnits="userSpaceOnUse" id="e"><stop offset="0"/><stop stop-color="#839363" offset="0"/><stop stop-color="#707e57" offset=".234"/><stop stop-color="#586346" offset=".575"/><stop stop-color="#475039" offset=".842"/><stop stop-color="#404934" offset="1"/></linearGradient><path fill="url(#e)" d="M42.229 27.809l7.167 6.628c10.327 7.552 25.277 14.641 44.852 21.423v-3.7L42.229 27.809z"/><linearGradient y2="42.836" x2="136.326" y1="42.836" x1="94.157" gradientUnits="userSpaceOnUse" id="f"><stop stop-color="#49503d" offset="0"/><stop stop-color="#78875b" offset="1"/></linearGradient><path fill="url(#f)" d="M136.4 35.978l5.086-6.165L94.21 52.152l.01 3.707c20.654-8.478 34.705-15.105 42.18-19.881z"/><linearGradient y2="92.878" x2="156.773" y1="92.878" x1="108.454" gradientUnits="userSpaceOnUse" id="g"><stop stop-color="#434a39" offset="0"/><stop stop-color="#4b533f" offset=".165"/><stop stop-color="#5e684d" offset=".46"/><stop stop-color="#78865d" offset=".847"/><stop stop-color="#839363" offset="1"/></linearGradient><path fill="url(#g)" d="M108.518 64.325l.153 4.855c11.251 16.184 23.351 31.674 36.143 46.547l12.023 5.703-48.319-57.105z"/><g><linearGradient y2="93.351" x2="70.418" y1="93.351" x1="24.454" gradientUnits="userSpaceOnUse" id="h"><stop stop-color="#739148" offset="0"/><stop stop-color="#64724c" offset="1"/></linearGradient><path fill="url(#h)" d="M79.983 69.423l.077-5.009-45.774 57.874 8.554-5.165c10.48-9.939 22.887-25.814 37.143-47.7z"/></g><g><radialGradient gradientUnits="userSpaceOnUse" r="106.617" cy="76.235" cx="94.217" id="i"><stop stop-color="#fff" offset="0"/><stop stop-color="#f4f5f5" offset=".012"/><stop stop-color="#b6b8ba" offset=".122"/><stop stop-color="#86888a" offset=".226"/><stop stop-color="#636466" offset=".32"/><stop stop-color="#464547" offset=".402"/><stop stop-color="#212122" offset=".47"/><stop offset=".514"/></radialGradient><path fill="url(#i)" d="M127.769 91.154c8.786 11.328 18.727 22.272 30.054 32.905l-1.694-110.2c-24.121 26.433-39.996 43.311-47.625 50.476 7.861 11.406 14.255 20.346 19.265 26.819z"/></g><g><radialGradient gradientUnits="userSpaceOnUse" r="108.175" cy="76.197" cx="94.342" id="j"><stop stop-color="#fff" offset="0"/><stop stop-color="#87888b" offset=".25"/><stop offset=".441"/></radialGradient><path fill="url(#j)" d="M128.743 37.596c10.634-5.396 17.416-10.635 20.499-15.489l-58.06-6.896-54.685 4.813c4.778 6.551 13.178 12.871 25.2 18.804 4.546 2.312 9.941 4.701 16.336 7.243 2.544 1.003 8.015 3.161 16.184 6.319 15.105-5.778 26.588-10.633 34.526-14.794z"/></g><g><path d="M33.444 12.473h-3.777l.309 112.435c6.165-4.545 13.332-11.713 21.654-21.576 9.324-11.021 18.726-23.968 28.437-38.917l-13.871-13.41c-5.009-5.01-9.248-9.248-12.562-12.947-7.398-7.938-14.103-16.493-20.19-25.585z"/></g><g><path d="M18.307 129.67v4.777H172.51v-3.469c-11.868-6.78-22.271-13.1-31.21-18.88-17.186-11.328-32.906-23.196-47.086-35.758-13.948 13.796-29.438 26.048-46.623 36.761-7.86 4.933-17.031 10.095-27.589 15.721l-1.695.848z"/></g><g fill="#9abf5e"><path d="M173.779 132.859h-.396l-.476 1.506a.633.633 0 0 0-.118.317 1.757 1.757 0 0 1-.12-.278l-.516-1.545h-.396v2.14h.238v-1.822l.633 1.822h.237l.635-1.783v1.783h.277v-2.14h.002zM170.768 133.138h.674v-.279h-1.664v.279h.713v1.861h.277v-1.861zM160.97 132.863l-11.931 9.655-11.873-9.655h-6.715l15.289 12.353-15.289 12.351h6.715l11.873-9.713 11.931 9.713h6.655l-15.23-12.351 15.23-12.353h-6.655zM128.472 145.216c0-5.516-1.439-9.594-4.196-12.353H99.873c-2.879 2.759-4.318 6.837-4.318 12.353s1.439 9.593 4.318 12.352h24.403c2.757-2.759 4.196-6.896 4.196-12.352zm-4.078 0c0 1.859-.418 3.776-1.199 5.757l-1.139 2.577H102.03l-1.14-2.577c-.839-1.98-1.199-3.897-1.199-5.757 0-2.938.78-5.696 2.339-8.275h20.026c1.559 2.579 2.338 5.337 2.338 8.275zM89.319 146.235v-2.037l1.799-.962c-.42-4.616-1.799-8.093-4.137-10.373H62.577c-2.339 2.22-3.778 5.698-4.138 10.313h-3.957v4.078h3.957c.36 4.616 1.799 8.034 4.138 10.312H86.98c2.338-2.339 3.717-5.755 4.137-10.312l-1.798-1.019zm-4.557-9.295a17.58 17.58 0 0 1 2.218 6.236H62.577c.36-2.338 1.079-4.376 2.218-6.236h19.967zm2.218 10.315a17.867 17.867 0 0 1-2.218 6.295H64.795c-1.14-1.858-1.858-3.956-2.218-6.295H86.98z"/><path d="M41.052 145.216l15.229-12.353h-6.716l-11.872 9.655-11.932-9.655h-6.595l15.17 12.353-15.17 12.351h6.595l11.932-9.713 11.872 9.713h6.716l-15.229-12.351z"/></g><g fill="#90b258"><path d="M147.4 30.021h-.396l-.477 1.504a.65.65 0 0 0-.118.317 1.693 1.693 0 0 1-.119-.276l-.517-1.545h-.396v2.139h.238v-1.823l.635 1.823h.236l.635-1.783v1.783h.277v-2.139h.002zM144.389 30.297h.673v-.276h-1.664v.276h.715v1.862h.276v-1.862z"/></g></svg>