<?xml version="1.0" encoding="UTF-8"?>
<svg id="Calque_1" data-name="Calque 1" xmlns="http://www.w3.org/2000/svg" viewBox="0 0 205.48 98.29">
  <defs>
    <style>
      .cls-1 {
        fill: #a1a0a4;
      }
    </style>
  </defs>
  <path class="cls-1" d="M112.26,5.39l-17.35,68.02s-13.26-51.06-15.42-58.3c-2.16-7.25-6.6-10.43-12.9-10.43s-10.75,3.18-12.91,10.43c-2.15,7.24-15.42,58.3-15.42,58.3L20.9,5.39H0s20.08,72.57,22.81,80.98c2.12,6.56,7.15,11.92,14.61,11.92,8.52,0,12.51-6.21,14.36-11.92,1.83-5.68,14.82-53.61,14.82-53.61,0,0,13,47.93,14.82,53.61,1.84,5.71,5.83,11.92,14.35,11.92,7.46,0,12.48-5.36,14.62-11.92,2.72-8.41,22.79-80.98,22.79-80.98h-20.9ZM183.94,97.59h19.79V33.57h-19.79v64.01ZM182.02,11.19c0,6.17,5.2,11.18,11.6,11.18s11.86-4.91,11.86-11.18-5.21-11.19-11.86-11.19-11.6,5.02-11.6,11.19M143.73,97.59h19.78V33.57h-19.78v64.01ZM141.8,11.19c0,6.17,5.2,11.18,11.59,11.18s11.86-4.91,11.86-11.18-5.22-11.19-11.86-11.19-11.59,5.02-11.59,11.19"/>
</svg>