<?xml version="1.0" encoding="UTF-8"?>
<svg id="Calque_1" data-name="Calque 1" xmlns="http://www.w3.org/2000/svg" xmlns:xlink="http://www.w3.org/1999/xlink" viewBox="0 0 103.28 119.04">
  <defs>
    <style>
      .cls-1 {
        fill: url(#Dégradé_sans_nom_11);
      }

      .cls-2 {
        fill: url(#Dégradé_sans_nom_7);
      }

      .cls-3 {
        fill: url(#Dégradé_sans_nom_6);
      }

      .cls-4 {
        fill: #639;
      }

      .cls-5 {
        fill: #7a7eae;
      }

      .cls-6 {
        fill: url(#Dégradé_sans_nom_2);
      }

      .cls-7 {
        fill: #2d2868;
      }

      .cls-8 {
        fill: url(#Dégradé_sans_nom_9);
      }

      .cls-9 {
        fill: url(#Dégradé_sans_nom_4);
      }

      .cls-10 {
        fill: #120f22;
      }

      .cls-11 {
        fill: #484592;
      }

      .cls-12 {
        fill: url(#Dégradé_sans_nom_12);
      }

      .cls-13 {
        fill: url(#Dégradé_sans_nom_3);
      }

      .cls-14 {
        fill: #453d76;
      }

      .cls-15 {
        fill: url(#Dégradé_sans_nom_5);
      }

      .cls-16 {
        fill: url(#Dégradé_sans_nom_8);
      }
    </style>
    <linearGradient id="Dégradé_sans_nom_2" data-name="Dégradé sans nom 2" x1="23.39" y1="33.41" x2="100.36" y2="46.22" gradientTransform="translate(0 121.04) scale(1 -1)" gradientUnits="userSpaceOnUse">
      <stop offset=".04" stop-color="#fff"/>
      <stop offset=".9" stop-color="#898cbf"/>
    </linearGradient>
    <linearGradient id="Dégradé_sans_nom_3" data-name="Dégradé sans nom 3" x1="51.33" y1="32.14" x2="87.89" y2="32.14" gradientTransform="translate(0 121.04) scale(1 -1)" gradientUnits="userSpaceOnUse">
      <stop offset="0" stop-color="#140f2d"/>
      <stop offset="1" stop-color="#3b3c75"/>
    </linearGradient>
    <linearGradient id="Dégradé_sans_nom_4" data-name="Dégradé sans nom 4" x1="61.4" y1="56.93" x2="104.18" y2="28.85" gradientTransform="translate(0 121.04) scale(1 -1)" gradientUnits="userSpaceOnUse">
      <stop offset="0" stop-color="#4c5284"/>
      <stop offset="1" stop-color="#8789bc"/>
    </linearGradient>
    <linearGradient id="Dégradé_sans_nom_5" data-name="Dégradé sans nom 5" x1="51.22" y1="2.63" x2="50.93" y2="21.7" gradientTransform="translate(0 121.04) scale(1 -1)" gradientUnits="userSpaceOnUse">
      <stop offset=".11" stop-color="#4c407e"/>
      <stop offset=".89" stop-color="#669"/>
      <stop offset="1" stop-color="#a7b3d9"/>
      <stop offset="1" stop-color="#9ba5cd"/>
    </linearGradient>
    <linearGradient id="Dégradé_sans_nom_6" data-name="Dégradé sans nom 6" x1="4.62" y1="44.66" x2="63.26" y2="60.96" gradientTransform="translate(0 121.04) scale(1 -1)" gradientUnits="userSpaceOnUse">
      <stop offset=".23" stop-color="#669"/>
      <stop offset=".72" stop-color="#a7b3d9"/>
    </linearGradient>
    <linearGradient id="Dégradé_sans_nom_7" data-name="Dégradé sans nom 7" x1="5.63" y1="41.02" x2="64.27" y2="57.32" gradientTransform="translate(0 121.04) scale(1 -1)" gradientUnits="userSpaceOnUse">
      <stop offset=".23" stop-color="#669"/>
      <stop offset=".99" stop-color="#a7b3d9"/>
    </linearGradient>
    <linearGradient id="Dégradé_sans_nom_8" data-name="Dégradé sans nom 8" x1="18.76" y1="38.26" x2="42.08" y2="25.78" gradientTransform="translate(0 121.04) scale(1 -1)" gradientUnits="userSpaceOnUse">
      <stop offset="0" stop-color="#6e70a9"/>
      <stop offset=".97" stop-color="#514a8e"/>
    </linearGradient>
    <linearGradient id="Dégradé_sans_nom_9" data-name="Dégradé sans nom 9" x1="53.4" y1="99.74" x2="68.2" y2="92.53" gradientTransform="translate(0 121.04) scale(1 -1)" gradientUnits="userSpaceOnUse">
      <stop offset=".04" stop-color="#9ea5d3"/>
      <stop offset=".9" stop-color="#7675ae"/>
    </linearGradient>
    <linearGradient id="Dégradé_sans_nom_11" data-name="Dégradé sans nom 11" x1="47.32" y1="116.7" x2="43.83" y2="77.9" gradientTransform="translate(0 121.04) scale(1 -1)" gradientUnits="userSpaceOnUse">
      <stop offset="0" stop-color="#aaacd2"/>
      <stop offset=".63" stop-color="#fcfafb"/>
    </linearGradient>
    <linearGradient id="Dégradé_sans_nom_12" data-name="Dégradé sans nom 12" x1="68.77" y1="121.19" x2="65.28" y2="82.39" gradientTransform="translate(0 121.04) scale(1 -1)" gradientUnits="userSpaceOnUse">
      <stop offset=".67" stop-color="#aaacd2"/>
      <stop offset="1" stop-color="#fcfafb"/>
    </linearGradient>
  </defs>
  <g id="_3D_PART" data-name="3D PART">
    <polygon class="cls-6" points="85.71 59.83 85.71 79.16 51.45 98.91 17.46 79.16 15.93 80.19 51.45 101.02 87.26 80.32 87.26 58.93 85.71 59.83"/>
  </g>
  <g id="black_line_thing" data-name="black line thing">
    <polygon class="cls-5" points="85.71 79.07 87.26 80.19 87.26 80.32 87.16 80.39 85.57 79.23 85.71 79.16 85.71 79.07"/>
  </g>
  <g id="dark_purple_top_line" data-name="dark purple top line">
    <polygon class="cls-4" points="51.75 59.6 27.61 45.47 27.23 45.85 51.45 60.22 51.75 59.6"/>
    <polygon class="cls-4" points="51.67 59.6 51.84 59.6 51.88 59.8 51.56 59.8 51.67 59.6"/>
  </g>
  <g id="top_black_line" data-name="top black line">
    <polygon class="cls-10" points="51.75 60.22 51.75 59.6 103.13 29.9 103.28 30.32 51.75 60.22"/>
  </g>
  <g id="LOGO_DARK_LINES" data-name="LOGO DARK LINES">
    <polygon class="cls-13" points="51.75 119.04 52.09 101.31 87.75 80.76 87.89 58.75 87.26 58.75 87.26 80.32 51.45 101.02 51.33 119.04 51.75 119.04"/>
  </g>
  <g id="LOGO">
    <polygon class="cls-9" points="51.75 87.4 51.75 60.22 103.28 30.32 103.28 89.3 51.75 119.04 51.75 101.16 87.54 80.55 87.54 58.77 75.55 65.7 75.55 73.39 51.75 87.4"/>
  </g>
  <g id="BOTTOM_LAIN_LEFT_LIGHT_LINE" data-name="BOTTOM LAIN LEFT LIGHT LINE">
    <polyline class="cls-15" points="51.17 119.04 51.45 119.04 51.45 101.02 50.44 100.42 51.17 119.04"/>
  </g>
  <g id="underneath">
    <polyline class="cls-7" points="15.85 39 16.07 39.19 16.16 80.04 15.93 80.19 15.8 80.11 15.85 39"/>
  </g>
  <g id="LEFT_3D_PURPLE_SHADOW" data-name="LEFT 3D PURPLE SHADOW">
    <polygon class="cls-14" points="17.46 79.16 15.93 80.19 15.93 39.05 51.75 18.37 51.75 20.41 17.5 40.23 17.46 79.16"/>
  </g>
  <g id="MAIN_DARK_PURPLE_LINE" data-name="MAIN DARK PURPLE LINE">
    <polygon class="cls-14" points="51.75 59.5 51.75 87.4 51.45 87.59 51.45 60.22 51.45 59.43 51.75 59.5"/>
  </g>
  <g id="logo_LEFT_side" data-name="logo LEFT side">
    <polygon class="cls-3" points="27.23 45.85 27.23 73.59 51.45 87.59 51.45 60.22 27.23 45.85"/>
    <polygon class="cls-2" points="51.17 118.74 51.17 100.85 15.93 80.19 15.93 39.25 0 29.9 0 89.4 51.17 119.04 51.17 118.74"/>
  </g>
  <g id="left_purple_line" data-name="left purple line">
    <rect class="cls-7" x="15.66" y="39.05" width=".27" height="41.14"/>
    <polygon class="cls-7" points="15.93 39.05 .21 29.7 0 29.9 15.8 39.19 15.93 39.05"/>
  </g>
  <g id="BOTTOM_PURPLE_LINE" data-name="BOTTOM PURPLE LINE">
    <polygon class="cls-16" points="51.17 100.85 51.17 101.19 15.66 80.5 15.66 80.19 15.93 80.19 51.17 100.85"/>
  </g>
  <g id="top_middle_light_line" data-name="top middle light line">
    <polygon class="cls-8" points="51.75 18.37 74.64 31.76 74.64 33.76 51.75 20.41 51.75 18.37"/>
  </g>
  <g id="top_right" data-name="top right">
    <polygon class="cls-11" points="74.64 31.76 74.64 33.76 90.5 24.46 90.5 22.57 74.64 31.76"/>
  </g>
  <g id="MAIN_TOP" data-name="MAIN TOP">
    <polygon class="cls-1" points="51.58 0 90.5 22.57 74.64 31.76 51.75 18.37 15.93 39.05 .21 29.7 51.58 0"/>
    <polygon class="cls-12" points="27.61 45.47 51.44 32.01 74.14 44.82 101.79 28.93 103.13 29.9 51.75 59.6 27.61 45.47"/>
  </g>
</svg>