<svg xml:space="preserve" viewBox="79.92 453.59999999999997 918 313.2" version="1.1" xmlns:xlink="http://www.w3.org/1999/xlink" xmlns="http://www.w3.org/2000/svg" style="max-height: 500px" width="918" height="313.2">
<desc>Created with Fabric.js 5.2.4</desc>
<defs>
</defs>
<g id="d907d817-109e-4946-aee9-b12d164da0e1" transform="matrix(1 0 0 1 540 540)">
<rect height="1080" width="1080" ry="0" rx="0" y="-540" x="-540" style="stroke: none; stroke-width: 1; stroke-dasharray: none; stroke-linecap: butt; stroke-dashoffset: 0; stroke-linejoin: miter; stroke-miterlimit: 4; fill: rgb(255,255,255); fill-rule: nonzero; opacity: 1; visibility: hidden;"/>
</g>
<g id="53fb73f5-a12f-4916-98e3-62bbafb214b8" transform="matrix(1 0 0 1 540 540)">
</g>
<g transform="matrix(1 0 0 1 540 540)">
<g style="">
		<g transform="matrix(1 0 0 1 0 0)">
<path stroke-linecap="round" d="M 147.808 90.893999 C 153.316 96.242999 160.827 99.549999 169.111 99.549999 L 300 99.564999 L 271.73199999999997 15.232999000000007 C 267.871 6.2739988 258.813 -0.0000012207031 247.934 -0.0000012207031 C 237.101 -0.0000012207031 227.906 6.4789988 224.189 15.400999 L 214.766 42.871999 L 214.72899999999998 1.4189988000000042 L 169.01999999999998 1.3959988000000043 C 160.75799999999998 1.3959988000000043 153.331 4.619998800000005 147.861 9.952998800000005 L 147.87699999999998 1.4329988000000053 L 101.07599999999998 1.4329988000000053 C 92.35899999999998 1.4329988000000053 84.43099999999998 5.149998800000006 78.88599999999998 10.991999000000005 L 78.88599999999998 1.3959988 L 34.77599999999998 1.4339988000000001 C 15.734 1.4179988 0.114 16.302999 0.091 35.982999 C 0.091 45.093999 4.073 53.356999 9.944999999999999 59.478999 L 0 59.462999 L 0 99.54999900000001 L 44.442 99.54199900000002 C 56.929 99.52699900000002 69.303 91.99299900000001 73.604 82.96599900000001 L 73.733 82.59499900000002 C 78.702 92.63099900000002 89.072 99.54999900000001 101.07400000000001 99.54999900000001 L 147.80700000000002 99.54199900000002 L 147.80700000000002 90.89399900000002" transform="translate(-150, -49.78)" style="stroke: none; stroke-width: 1; stroke-dasharray: none; stroke-linecap: butt; stroke-dashoffset: 0; stroke-linejoin: miter; stroke-miterlimit: 4; fill: rgb(255,255,255); fill-rule: nonzero; opacity: 1;"/>
</g>
		<g transform="matrix(1 0 0 1 -110.52 7.98)">
<path stroke-linecap="round" d="M 6.866 92.690999 L 44.342999999999996 92.65299900000001 C 59.675999999999995 92.65299900000001 72.102 80.264999 72.102 65.00099900000001 C 72.102 49.70699900000001 59.676 37.31799900000001 44.343 37.31799900000001 L 34.61 37.370999000000005 C 33.842999999999996 37.370999000000005 33.221 36.74199900000001 33.221 35.967999000000006 C 33.221 35.193999000000005 33.842999999999996 34.56399900000001 34.61 34.56399900000001 L 72.019 34.57199900000001 L 72.034 22.83599900000001 L 34.602 22.83599900000001 C 27.364999999999995 22.83599900000001 21.476999999999997 28.714999000000013 21.476999999999997 35.93799900000001 C 21.476999999999997 43.16799900000001 27.363999999999997 49.02399900000001 34.602 49.02399900000001 L 44.381 49.15299900000001 C 53.166 49.15299900000001 60.275 56.23799900000001 60.275 64.97899900000002 C 60.275 73.72599900000002 53.167 80.82699900000001 44.381 80.82699900000001 L 6.881 80.82699900000001 L 6.8660000000000005 92.69099900000002" transform="translate(-39.48, -57.76)" style="stroke: none; stroke-width: 1; stroke-dasharray: none; stroke-linecap: butt; stroke-dashoffset: 0; stroke-linejoin: miter; stroke-miterlimit: 4; fill: rgb(0,96,168); fill-rule: nonzero; opacity: 1;"/>
</g>
		<g transform="matrix(1 0 0 1 -110.56 -6.59)">
<path stroke-linecap="round" d="M 6.881 78.071999 L 44.381 78.071999 C 51.641 78.071999 57.513 72.21599900000001 57.513 64.97799900000001 C 57.513 57.74799900000001 51.641 51.89899900000001 44.381 51.89899900000001 L 34.602000000000004 51.79299900000001 C 25.832000000000004 51.79299900000001 18.716000000000005 44.699999000000005 18.716000000000005 35.93699900000001 C 18.716000000000005 27.197999000000006 25.832000000000004 20.10399900000001 34.602000000000004 20.10399900000001 L 72.034 20.09599900000001 L 72.019 8.3149988 L 34.61 8.3149988 C 19.293 8.3149988 6.850999999999999 20.688999 6.850999999999999 35.967999 C 6.850999999999999 51.246999 19.293 63.627999 34.61 63.627999 L 44.29 63.642999 C 45.025999999999996 63.642999 45.647999999999996 64.242999 45.647999999999996 65.00099900000001 C 45.647999999999996 65.744999 45.025999999999996 66.34399900000001 44.29 66.34399900000001 L 6.866 66.37399900000001 L 6.880999999999999 78.071999" transform="translate(-39.44, -43.19)" style="stroke: none; stroke-width: 1; stroke-dasharray: none; stroke-linecap: butt; stroke-dashoffset: 0; stroke-linejoin: miter; stroke-miterlimit: 4; fill: rgb(0,96,168); fill-rule: nonzero; opacity: 1;"/>
</g>
		<g transform="matrix(1 0 0 1 -40.62 0.68)">
<path stroke-linecap="round" d="M 101.158 80.901999 C 94.656 80.901999 89.33 75.719999 89.33 69.103999 L 89.33 31.665999 C 89.33 25.300998999999997 94.65599999999999 20.065998999999998 101.158 20.065998999999998 L 141.161 20.072999 L 141.161 8.3149988 L 101.158 8.3149988 C 88.14 8.3149988 77.595 18.821998999999998 77.595 31.794998999999997 L 77.595 69.10499899999999 C 77.595 82.078999 88.14 92.60099899999999 101.158 92.60099899999999 L 140.994 92.61699899999999 L 140.986 80.887999 L 101.15799999999999 80.90199899999999" transform="translate(-109.38, -50.47)" style="stroke: none; stroke-width: 1; stroke-dasharray: none; stroke-linecap: butt; stroke-dashoffset: 0; stroke-linejoin: miter; stroke-miterlimit: 4; fill: rgb(0,96,168); fill-rule: nonzero; opacity: 1;"/>
</g>
		<g transform="matrix(1 0 0 1 -33.33 -13.85)">
<path stroke-linecap="round" d="M 92.198 31.794999 C 92.198 26.833999 96.189 22.812999 101.15799999999999 22.812999 L 141.161 22.812999 L 141.161 34.586999 L 106.696 34.586999 C 103.935 34.586999 103.89699999999999 37.325998999999996 103.89699999999999 37.325998999999996 L 132.64999999999998 37.325998999999996 L 132.64999999999998 49.046999 L 92.184 49.046999 L 92.198 31.794999" transform="translate(-116.67, -35.93)" style="stroke: none; stroke-width: 1; stroke-dasharray: none; stroke-linecap: butt; stroke-dashoffset: 0; stroke-linejoin: miter; stroke-miterlimit: 4; fill: rgb(0,96,168); fill-rule: nonzero; opacity: 1;"/>
</g>
		<g transform="matrix(1 0 0 1 -33.41 15.16)">
<path stroke-linecap="round" d="M 101.158 78.049999 C 96.20400000000001 78.049999 92.183 74.051999 92.183 69.10499899999999 L 92.183 51.837998999999996 L 132.649 51.837998999999996 L 132.649 63.582998999999994 L 103.896 63.582998999999994 C 103.934 66.343999 106.69500000000001 66.35799899999999 106.69500000000001 66.35799899999999 L 140.993 66.35799899999999 L 140.98499999999999 78.033999 L 101.15799999999999 78.049999" transform="translate(-116.59, -64.94)" style="stroke: none; stroke-width: 1; stroke-dasharray: none; stroke-linecap: butt; stroke-dashoffset: 0; stroke-linejoin: miter; stroke-miterlimit: 4; fill: rgb(0,96,168); fill-rule: nonzero; opacity: 1;"/>
</g>
		<g transform="matrix(1 0 0 1 26.71 0.68)">
<path stroke-linecap="round" d="M 169.194 80.871999 C 162.71499999999997 80.871999 157.42 75.591999 157.42 69.103999 L 157.42 31.793999 C 157.42 25.299999 162.677 20.064999 169.16299999999998 20.064999 L 207.908 20.064999 L 207.908 8.3149988 L 169.07299999999998 8.3149988 C 156.06099999999998 8.3149988 145.516 18.821998999999998 145.516 31.794998999999997 L 145.516 69.10499899999999 C 145.516 82.078999 156.152 92.60099899999999 169.16299999999998 92.60099899999999 L 207.908 92.61699899999999 L 207.908 37.325998999999996 L 174.611 37.325998999999996 L 174.611 49.046999 L 196.141 49.046999 L 196.141 80.871999 L 169.194 80.871999" transform="translate(-176.71, -50.47)" style="stroke: none; stroke-width: 1; stroke-dasharray: none; stroke-linecap: butt; stroke-dashoffset: 0; stroke-linejoin: miter; stroke-miterlimit: 4; fill: rgb(0,96,168); fill-rule: nonzero; opacity: 1;"/>
</g>
		<g transform="matrix(1 0 0 1 34.05 0.68)">
<path stroke-linecap="round" d="M 160.181 69.103999 C 160.181 74.074999 164.202 78.117999 169.163 78.117999 L 193.364 78.117999 L 193.364 51.822998999999996 L 174.64 51.822998999999996 L 174.64 63.582998999999994 L 181.589 63.582998999999994 L 181.611 66.343999 L 174.69299999999998 66.343999 C 173.183 66.343999 171.94699999999997 65.09299899999999 171.94699999999997 63.582998999999994 L 171.88499999999996 37.31799899999999 C 171.88499999999996 37.31799899999999 171.87699999999995 34.58699899999999 174.66199999999995 34.518998999999994 L 207.92099999999994 34.518998999999994 L 207.90599999999995 22.804998999999995 L 169.16099999999994 22.812998999999994 C 164.19999999999993 22.812998999999994 160.17899999999995 26.833998999999995 160.17899999999995 31.794998999999994 L 160.17899999999995 69.10399899999999" transform="translate(-184.05, -50.46)" style="stroke: none; stroke-width: 1; stroke-dasharray: none; stroke-linecap: butt; stroke-dashoffset: 0; stroke-linejoin: miter; stroke-miterlimit: 4; fill: rgb(0,96,168); fill-rule: nonzero; opacity: 1;"/>
</g>
		<g transform="matrix(1 0 0 1 95.45 6.55)">
<path stroke-linecap="round" d="M 244.315 22.637999 C 244.837 21.143999 246.256 20.066999 247.933 20.066999 C 249.611 20.066999 251.04399999999998 21.143999 251.552 22.637999 L 270.36 78.200999 L 242.82000000000002 78.200999 L 242.85000000000002 65.129999 L 252.05300000000003 65.129999 L 247.91000000000003 52.816998999999996 L 234.41400000000002 92.606999 L 220.531 92.606999 L 244.315 22.637999000000008" transform="translate(-245.45, -56.34)" style="stroke: none; stroke-width: 1; stroke-dasharray: none; stroke-linecap: butt; stroke-dashoffset: 0; stroke-linejoin: miter; stroke-miterlimit: 4; fill: rgb(0,96,168); fill-rule: nonzero; opacity: 1;"/>
</g>
		<g transform="matrix(1 0 0 1 97.81 -0.01)">
<path stroke-linecap="round" d="M 274.152 80.871999 L 242.86599999999999 80.871999 L 242.86599999999999 92.606999 L 290.478 92.606999 L 265.716 19.344999 C 263.546 12.198999 256.39300000000003 6.941998800000002 247.925 6.941998800000002 C 239.44400000000002 6.941998800000002 232.31300000000002 12.175999000000001 230.127 19.315999 L 205.138 92.607999 L 217.603 92.607999 L 241.865 21.363999000000007 C 242.85000000000002 19.004999000000005 245.173 17.342999000000006 247.904 17.342999000000006 C 250.62 17.342999000000006 252.956 19.004999000000005 253.95 21.348999000000006 L 274.152 80.87199900000002" transform="translate(-247.81, -49.77)" style="stroke: none; stroke-width: 1; stroke-dasharray: none; stroke-linecap: butt; stroke-dashoffset: 0; stroke-linejoin: miter; stroke-miterlimit: 4; fill: rgb(0,96,168); fill-rule: nonzero; opacity: 1;"/>
</g>
		<g transform="matrix(1 0 0 1 131.51 -40.4)">
<path stroke-linecap="round" d="M 281.504 17.638999 C 283.72 17.638999 285.80600000000004 16.773999 287.369 15.218998999999998 C 288.93100000000004 13.648998999999998 289.80400000000003 11.577998999999998 289.80400000000003 9.362998799999998 C 289.80400000000003 7.162998799999998 288.93100000000004 5.098998799999998 287.369 3.5289987999999983 C 285.80600000000004 1.9819987999999984 283.72 1.1169987999999984 281.504 1.1169987999999984 C 276.945 1.1169987999999984 273.22 4.811998799999998 273.22 9.363998799999997 C 273.22 11.578998999999998 274.08500000000004 13.649998999999998 275.66200000000003 15.219998999999998 C 277.218 16.773998999999996 279.29600000000005 17.638999 281.504 17.638999 M 274.389 9.361998799999999 C 274.389 7.472998799999998 275.117 5.682998799999998 276.474 4.339998799999998 C 277.825 2.9969987999999983 279.615 2.268998799999998 281.50399999999996 2.268998799999998 C 283.41599999999994 2.268998799999998 285.20599999999996 2.997998799999998 286.55699999999996 4.339998799999998 C 287.9 5.682998799999998 288.64399999999995 7.472998799999998 288.64399999999995 9.361998799999999 C 288.64399999999995 13.283998999999998 285.44199999999995 16.469998999999998 281.50399999999996 16.469998999999998 C 279.614 16.469998999999998 277.82399999999996 15.733998999999997 276.474 14.390998999999997 C 275.116 13.048998999999997 274.389 11.265998999999997 274.389 9.361998799999999 z" transform="translate(-281.51, -9.38)" style="stroke: none; stroke-width: 1; stroke-dasharray: none; stroke-linecap: butt; stroke-dashoffset: 0; stroke-linejoin: miter; stroke-miterlimit: 4; fill: rgb(35,31,32); fill-rule: nonzero; opacity: 1;"/>
</g>
		<g transform="matrix(1 0 0 1 131.94 -40.41)">
<path stroke-linecap="round" d="M 279.38 10.059999 L 279.38 13.958998999999999 L 278.181 13.958998999999999 L 278.181 4.7949988 L 281.587 4.7949988 C 282.87 4.8099988 283.621 4.8099988 284.334 5.3479988 C 285.024 5.8569988 285.313 6.6229987999999995 285.313 7.4729988 C 285.313 9.6129988 283.56899999999996 9.8929988 283.127 9.9839988 L 285.707 13.958999 L 284.258 13.958999 L 281.74699999999996 10.059999000000001 L 279.37999999999994 10.059999000000001 M 279.37999999999994 9.050998800000002 L 281.81499999999994 9.050998800000002 C 282.2029999999999 9.050998800000002 282.56699999999995 9.050998800000002 282.9309999999999 8.959998800000003 C 283.78099999999995 8.754998800000003 284.08399999999995 8.147998800000003 284.08399999999995 7.480998800000003 C 284.08399999999995 7.237998800000002 284.0609999999999 6.6239988000000025 283.5369999999999 6.198998800000003 C 283.05799999999994 5.796998800000003 282.45199999999994 5.811998800000003 281.7469999999999 5.811998800000003 L 279.3799999999999 5.811998800000003 L 279.3799999999999 9.050998800000002 z" transform="translate(-281.94, -9.38)" style="stroke: none; stroke-width: 1; stroke-dasharray: none; stroke-linecap: butt; stroke-dashoffset: 0; stroke-linejoin: miter; stroke-miterlimit: 4; fill: rgb(35,31,32); fill-rule: nonzero; opacity: 1;"/>
</g>
</g>
</g>
<g transform="matrix(3.92 0 0 3.92 540 663.06)">
<g style="">
		<g id="path6717" transform="matrix(1 0 0 1 -95.25 -4.02)">
<path stroke-linecap="round" d="M 104.99375 49.935219 L 92.747657 49.935219 L 92.747657 48.5485 C 93.190342 48.53548 93.760003 48.489909999999995 94.456641 48.411781 C 95.15323000000001 48.333661 95.63174500000001 48.222981 95.892188 48.07975 C 96.29580700000001 47.832356 96.592031 47.549153999999994 96.78086 47.230140999999996 C 96.96963500000001 46.911133 97.064036 46.510743 97.064063 46.028969 L 97.064063 25.872718999999996 L 96.771094 25.872718999999996 L 87.317969 49.486 L 86.341407 49.486 L 77.337501 25.384437999999996 L 77.083594 25.384437999999996 L 77.083594 41.92740599999999 C 77.08358700000001 43.52897499999999 77.184498 44.74642199999999 77.386329 45.57974999999999 C 77.588144 46.41308699999999 77.897388 47.01204499999999 78.314063 47.37662499999999 C 78.600513 47.65006499999999 79.19296 47.91048099999999 80.091407 48.15787499999999 C 80.989833 48.40527299999999 81.57577 48.53548099999999 81.849219 48.54849999999999 L 81.849219 49.93521899999999 L 70.657813 49.93521899999999 L 70.657813 48.54849999999999 C 71.24374900000001 48.49641999999999 71.85898300000001 48.39876199999999 72.503516 48.25553099999999 C 73.148044 48.11230399999999 73.64609 47.89746099999999 73.997657 47.61099999999999 C 74.45338100000001 47.24641999999999 74.76588100000001 46.68652399999999 74.935157 45.93131299999999 C 75.104422 45.17610899999999 75.189058 43.91308999999999 75.189063 42.14224999999999 L 75.189063 27.96256299999999 C 75.189058 27.14227299999999 75.091403 26.47170099999999 74.896094 25.95084399999999 C 74.700777 25.43003499999999 74.42082900000001 25.00685799999999 74.056251 24.68131299999999 C 73.652601 24.32977599999999 73.15781 24.069358999999988 72.571876 23.90006299999999 C 71.98593600000001 23.73081799999999 71.406509 23.633161999999988 70.833594 23.60709399999999 L 70.833594 22.22037499999999 L 80.286719 22.22037499999999 L 88.216407 43.00162499999999 L 94.993751 25.61881299999999 C 95.241121 24.980816999999988 95.452709 24.31349999999999 95.628516 23.61685999999999 C 95.804271 22.92027199999999 95.898672 22.454777999999987 95.911719 22.22037499999999 L 104.95469 22.22037499999999 L 104.95469 23.60709399999999 C 104.59007 23.62014399999999 104.12458 23.678733999999988 103.5582 23.78287499999999 C 102.99176 23.88706799999999 102.57835 23.98472399999999 102.31797 24.07584399999999 C 101.87523 24.232119999999988 101.57575 24.49253599999999 101.41953000000001 24.85709399999999 C 101.26325000000001 25.22170199999999 101.18513000000002 25.61883699999999 101.18516000000001 26.04849999999999 L 101.18516000000001 46.02896899999999 C 101.18513000000002 46.48470199999999 101.26326000000002 46.86881599999999 101.41953000000001 47.18131299999999 C 101.57575000000001 47.49381499999999 101.87523 47.76725199999999 102.31797 48.00162499999999 C 102.55231 48.13183499999999 102.96898 48.25227799999999 103.56797 48.36295299999999 C 104.16689000000001 48.47363199999999 104.64215 48.53548099999999 104.99375 48.54849999999999 z" transform="translate(-87.83, -36.08)" style="stroke: none; stroke-width: 1; stroke-dasharray: none; stroke-linecap: butt; stroke-dashoffset: 0; stroke-linejoin: miter; stroke-miterlimit: 4; fill: rgb(255,0,0); fill-rule: nonzero; opacity: 1;"/>
</g>
		<g id="path6719" transform="matrix(1 0 0 1 -69.79 0.18)">
<path stroke-linecap="round" d="M 122.32812 49.583656 C 121.71612999999999 49.805011 121.17902 49.984047 120.71679999999999 50.120765999999996 C 120.25453999999999 50.257484 119.73044999999999 50.325844 119.14452999999999 50.325844 C 118.12888999999998 50.325844 117.31833999999999 50.088213999999994 116.71288999999999 49.612953 C 116.10740999999999 49.137693999999996 115.72003999999998 48.444334999999995 115.55077999999999 47.532875 L 115.43359 47.532875 C 114.58722999999999 48.470377 113.67902 49.186522 112.70898 49.681312999999996 C 111.73892 50.176103999999995 110.5703 50.4235 109.20312 50.4235 C 107.75780999999999 50.4235 106.56966 49.980791999999994 105.63867 49.095375 C 104.70768000000001 48.209959999999995 104.24218 47.051106999999995 104.24219000000001 45.618812999999996 C 104.24218 44.87663 104.34635 44.212568 104.55469000000001 43.626625 C 104.76302000000001 43.040695 105.07552000000001 42.513351 105.49219000000001 42.044594 C 105.8177 41.653977 106.24739000000001 41.30567 106.78125000000001 40.999672 C 107.31510000000002 40.693692 107.81640000000002 40.449551 108.28516000000002 40.26725 C 108.87109000000002 40.045905999999995 110.05924000000002 39.635749999999994 111.84961000000001 39.036781 C 113.63996000000002 38.437835 114.84764000000001 37.969085 115.47266000000002 37.630531 L 115.47266000000002 35.696937999999996 C 115.47264000000001 35.527680999999994 115.43686000000002 35.202161 115.36523000000003 34.720375 C 115.29363000000002 34.23862 115.14061000000002 33.782891 114.90625000000003 33.353187999999996 C 114.64582000000003 32.871433999999994 114.27798000000003 32.451513 113.80273000000003 32.093422 C 113.32746000000003 31.735366999999997 112.65363000000002 31.556330999999997 111.78125000000003 31.556312999999996 C 111.18228000000003 31.556330999999997 110.62564000000003 31.657241999999997 110.11133000000002 31.859046999999997 C 109.59700000000002 32.060888 109.23567000000003 32.272476 109.02734000000002 32.493812999999996 C 109.02734000000002 32.75424699999999 109.08924000000002 33.138360999999996 109.21289000000003 33.646156 C 109.33658000000003 34.153985 109.39843000000003 34.622733999999994 109.39844000000004 35.052406 C 109.39843000000003 35.50815 109.19335000000004 35.924816 108.78320000000004 36.302406 C 108.37304000000003 36.680023999999996 107.80338000000003 36.868826 107.07422000000004 36.868812999999996 C 106.42317000000004 36.868826 105.94466000000004 36.637705999999994 105.63867000000003 36.175453 C 105.33268000000004 35.713228 105.17968000000003 35.19565 105.17969000000004 34.622719 C 105.17968000000003 34.023776999999995 105.39127000000003 33.45086 105.81445000000004 32.903969 C 106.23763000000004 32.357111999999994 106.78776000000003 31.868830999999997 107.46484000000004 31.439124999999997 C 108.05077000000004 31.074560999999996 108.76041000000004 30.765316 109.59375000000004 30.511390999999996 C 110.42707000000004 30.257503999999997 111.24088000000005 30.130550999999997 112.03516000000005 30.130530999999998 C 113.12889000000004 30.130550999999997 114.08267000000005 30.205420999999998 114.89648000000005 30.355140999999996 C 115.71027000000005 30.504899999999996 116.44920000000005 30.827164999999997 117.11328000000006 31.321937999999996 C 117.77733000000006 31.803726999999995 118.28188000000006 32.458023 118.62695000000006 33.284828 C 118.97199000000006 34.111667 119.14451000000007 35.176119 119.14453000000006 36.478187999999996 C 119.14451000000005 38.340177999999995 119.12493000000006 39.990567 119.08593000000006 41.429359999999996 C 119.04683000000006 42.868168999999995 119.02733000000006 44.440433 119.02733000000006 46.146156 C 119.02732000000006 46.653971999999996 119.11523000000007 47.057618 119.29100000000007 47.357094 C 119.46677000000007 47.656575 119.73695000000006 47.910481 120.10155000000007 48.118812999999996 C 120.29685000000008 48.236002 120.60609000000008 48.301106 121.02929000000007 48.314125 C 121.45244000000008 48.327144999999994 121.88539000000007 48.333655 122.32811000000008 48.333655 z M 115.51172 39.271156 C 114.40494 39.596688 113.43487999999999 39.915698 112.60155999999999 40.228187999999996 C 111.76821999999999 40.540696999999994 110.99347999999999 40.931321999999994 110.27734 41.400062999999996 C 109.62629 41.84277899999999 109.11197 42.366867 108.73437 42.972328 C 108.35676 43.577802999999996 108.16796 44.297204 108.16797 45.130531 C 108.16796 46.211264 108.45116999999999 47.005534 109.01758 47.513344 C 109.58398 48.021158 110.30337999999999 48.27506399999999 111.17577999999999 48.275062999999996 C 112.10024999999999 48.27506399999999 112.91404999999999 48.05045499999999 113.61719 47.601234999999996 C 114.32029999999999 47.152018999999996 114.91274999999999 46.62141999999999 115.39452999999999 46.009437999999996 z" transform="translate(-113.29, -40.28)" style="stroke: none; stroke-width: 1; stroke-dasharray: none; stroke-linecap: butt; stroke-dashoffset: 0; stroke-linejoin: miter; stroke-miterlimit: 4; fill: rgb(255,0,0); fill-rule: nonzero; opacity: 1;"/>
</g>
		<g id="path6721" transform="matrix(1 0 0 1 -55.79 0.18)">
<path stroke-linecap="round" d="M 132.80703 40.501625 C 133.34087 40.970383999999996 133.75103 41.510748 134.0375 42.122719 C 134.32394 42.734705 134.46716999999998 43.483402999999996 134.46719 44.368812999999996 C 134.46716999999998 46.152671 133.79986 47.611003 132.46524 48.743812999999996 C 131.13058999999998 49.876625 129.40206999999998 50.443031 127.27968999999999 50.443031 C 126.15988999999999 50.443031 125.12798999999998 50.241208 124.18399 49.837562999999996 C 123.23997 49.433916999999994 122.56613999999999 49.062824 122.1625 48.724281 L 121.77188 49.993812999999996 L 120.30703 49.993812999999996 L 120.11171999999999 43.294594 L 121.45938 43.294594 C 121.56353999999999 43.802412999999994 121.78488999999999 44.394859999999994 122.12344 45.071937999999996 C 122.46198 45.749024999999996 122.87213 46.361003999999994 123.35391 46.907875 C 123.86171 47.480793999999996 124.47044 47.962565 125.18008 48.353187999999996 C 125.88971000000001 48.74381399999999 126.68723 48.939125999999995 127.57266 48.939125 C 128.82265 48.939125999999995 129.78619 48.655922999999994 130.46328 48.089515999999996 C 131.14034999999998 47.523112 131.47889 46.712565999999995 131.47890999999998 45.657875 C 131.47888999999998 45.111005 131.37147 44.638999999999996 131.15663999999998 44.241859999999996 C 130.94178999999997 43.84473 130.62603 43.49642299999999 130.20937999999998 43.196937999999996 C 129.77967999999998 42.897465999999994 129.25232999999997 42.627283999999996 128.62734999999998 42.386390999999996 C 128.00233999999998 42.145512999999994 127.30571999999998 41.907883 126.53749999999998 41.6735 C 125.92550999999997 41.491217 125.24517999999998 41.240565999999994 124.49648999999998 40.921547 C 123.74777999999998 40.602546 123.10650999999999 40.228196999999994 122.57265999999998 39.7985 C 121.99973999999999 39.342782 121.53098999999999 38.782886 121.16640999999998 38.118812999999996 C 120.80181999999998 37.45476299999999 120.61952999999998 36.67351299999999 120.61952999999998 35.775062999999996 C 120.61952999999998 34.199557999999996 121.20546999999998 32.864923999999995 122.37734999999998 31.771155999999998 C 123.54921999999998 30.677425999999997 125.11821999999998 30.130550999999997 127.08437999999998 30.130530999999998 C 127.83957999999998 30.130550999999997 128.61105999999998 30.228210999999998 129.39882999999998 30.423499999999997 C 130.18657999999996 30.618831999999998 130.82784999999998 30.853206999999998 131.32265999999998 31.126624999999997 L 131.77187999999998 30.110999999999997 L 133.17812999999998 30.110999999999997 L 133.47109999999998 36.302406 L 132.12344 36.302406 C 131.84999 34.922213 131.2608 33.799167 130.35585999999998 32.933265999999996 C 129.4509 32.067398 128.34739 31.634455999999997 127.04530999999997 31.634437999999996 C 125.97759999999997 31.634455999999997 125.13775999999997 31.901382999999996 124.52577999999997 32.435219 C 123.91379999999997 32.969089999999994 123.60780999999997 33.613620999999995 123.60780999999997 34.368812999999996 C 123.60780999999997 34.954764999999995 123.70871999999997 35.443045999999995 123.91054999999997 35.833656 C 124.11236999999997 36.224295 124.41509999999997 36.556326 124.81874999999997 36.82975 C 125.20936999999996 37.09018 125.70090999999996 37.33432 126.29335999999996 37.562172 C 126.88579999999996 37.790048999999996 127.61821999999997 38.04721 128.49062999999995 38.333656 C 129.34998999999996 38.607105 130.16053999999994 38.926114999999996 130.92226999999994 39.290687999999996 C 131.68396999999993 39.655280999999995 132.31222999999994 40.058927 132.80702999999994 40.501625 z" transform="translate(-127.29, -40.28)" style="stroke: none; stroke-width: 1; stroke-dasharray: none; stroke-linecap: butt; stroke-dashoffset: 0; stroke-linejoin: miter; stroke-miterlimit: 4; fill: rgb(255,0,0); fill-rule: nonzero; opacity: 1;"/>
</g>
		<g id="path6723" transform="matrix(1 0 0 1 -44.5 -2.55)">
<path stroke-linecap="round" d="M 145.10234 49.095375 C 144.25598 49.446937999999996 143.4552 49.743162 142.7 49.984047 C 141.94477999999998 50.224931999999995 141.0203 50.345375 139.92656 50.345375 C 138.31197 50.345375 137.17591 49.938474 136.51836 49.124672 C 135.8608 48.310871999999996 135.53203 47.161784 135.53203 45.677406 L 135.53203 32.630531 L 132.05546999999999 32.630531 L 132.05546999999999 30.755530999999998 L 135.61015999999998 30.755530999999998 L 135.61015999999998 24.759437999999996 L 139.16483999999997 24.759437999999996 L 139.16483999999997 30.755530999999998 L 144.69218999999998 30.755530999999998 L 144.69218999999998 32.630531 L 139.20390999999998 32.630531 L 139.20390999999998 43.39225 C 139.20389999999998 44.199548 139.23320999999999 44.873374999999996 139.29180999999997 45.413734999999996 C 139.35040999999998 45.954102999999996 139.49036999999996 46.42610799999999 139.71172999999996 46.82975 C 139.92004999999995 47.207356999999995 140.23254999999995 47.493815 140.64922999999996 47.689125 C 141.06588999999997 47.88444 141.62577999999996 47.982096 142.32891999999995 47.982094 C 142.65442999999996 47.982096 143.13293999999996 47.95280399999999 143.76445999999996 47.894203999999995 C 144.39595999999995 47.83561399999999 144.84191999999996 47.760743 145.10234999999994 47.669594999999994 z" transform="translate(-138.58, -37.55)" style="stroke: none; stroke-width: 1; stroke-dasharray: none; stroke-linecap: butt; stroke-dashoffset: 0; stroke-linejoin: miter; stroke-miterlimit: 4; fill: rgb(255,0,0); fill-rule: nonzero; opacity: 1;"/>
</g>
		<g id="path6725" transform="matrix(1 0 0 1 -31.64 0.19)">
<path stroke-linecap="round" d="M 159.99531 45.403969 C 159.18801 46.94043 158.10728 48.164387 156.75313 49.075844 C 155.39894999999999 49.987302 153.84296 50.443031 152.08516 50.443031 C 150.53567 50.443031 149.17825 50.169594 148.01289 49.622719 C 146.84752 49.075844999999994 145.88724 48.333658 145.13203 47.396156 C 144.37681999999998 46.458659999999995 143.81366999999997 45.364911 143.44258 44.114906 C 143.07147999999998 42.864914 142.88594 41.543299999999995 142.88594 40.150062999999996 C 142.88594 38.900074 143.08451 37.672861 143.48164 36.468422 C 143.87878 35.26401 144.46146 34.180026 145.22969 33.216469 C 145.97187 32.292007 146.8931 31.546564999999998 147.99336 30.980140999999996 C 149.09360999999998 30.413753999999997 150.32734 30.130550999999997 151.69453 30.130530999999998 C 153.10076999999998 30.130550999999997 154.30519999999999 30.351905 155.30781 30.794593999999996 C 156.3104 31.237320999999998 157.12420999999998 31.842788999999996 157.74921999999998 32.611 C 158.34815999999998 33.340182999999996 158.79412999999997 34.199557999999996 159.08710999999997 35.189125 C 159.38005999999996 36.178722 159.52654999999996 37.252939999999995 159.52655999999996 38.411781 L 159.52655999999996 39.700844 L 146.77265999999997 39.700844 C 146.77264999999997 40.963874 146.89309999999998 42.109705999999996 147.13398999999998 43.138344 C 147.37487 44.166996 147.75572 45.071943 148.27656 45.853187999999996 C 148.78437 46.608399 149.44843 47.204102 150.26874999999998 47.640297 C 151.08905 48.076496999999996 152.06562 48.294596 153.19843999999998 48.294594 C 154.35727999999997 48.294596 155.35662999999997 48.02441399999999 156.19648999999998 47.484047 C 157.03631 46.943686 157.84686 45.970378999999994 158.62812999999997 44.564125 z M 155.67891 38.060219 C 155.67889 37.331064999999995 155.61701 36.549816 155.49336 35.716469 C 155.36965 34.883151 155.17108 34.186536999999994 154.89766 33.626625 C 154.59817 33.027683999999994 154.18801 32.539403 153.66719 32.161781 C 153.14634 31.784194999999997 152.47577 31.595394 151.65547 31.595374999999997 C 150.28827 31.595394 149.15221 32.165054 148.24727000000001 33.304359999999996 C 147.34231000000003 34.443698 146.85078000000001 36.028983 146.77266 38.060219 z" transform="translate(-151.44, -40.29)" style="stroke: none; stroke-width: 1; stroke-dasharray: none; stroke-linecap: butt; stroke-dashoffset: 0; stroke-linejoin: miter; stroke-miterlimit: 4; fill: rgb(255,0,0); fill-rule: nonzero; opacity: 1;"/>
</g>
		<g id="path6727" transform="matrix(1 0 0 1 -17.7 -0.03)">
<path stroke-linecap="round" d="M 172.85703 33.157875 C 172.85702 33.821954 172.69426 34.411145999999995 172.36875 34.925453 C 172.04321000000002 35.439791 171.54191 35.696951999999996 170.86484000000002 35.696937999999996 C 170.13566 35.696951999999996 169.57902 35.50814999999999 169.19492000000002 35.130531 C 168.81080000000003 34.752942 168.61874000000003 34.336276 168.61875000000003 33.880531 C 168.61874000000003 33.594089 168.64155000000002 33.333673 168.68715000000003 33.099281 C 168.73275000000004 32.864923999999995 168.77505000000002 32.630548999999995 168.81410000000002 32.396156 C 168.20211000000003 32.396173999999995 167.48597000000004 32.64357 166.66567000000003 33.138344 C 165.84534000000002 33.633151999999995 165.14873000000003 34.336276 164.57582000000002 35.247719 L 164.57582000000002 46.458656 C 164.57581000000002 46.914389 164.66372 47.285481999999995 164.83949 47.571937999999996 C 165.01527000000002 47.858397999999994 165.29196000000002 48.07324199999999 165.66957000000002 48.216469 C 165.99508000000003 48.346678999999995 166.41500000000002 48.444334999999995 166.92934000000002 48.509437999999996 C 167.44365000000002 48.574538 167.88961000000003 48.620115999999996 168.26723 48.646156 L 168.26723 49.935219 L 158.11098 49.935219 L 158.11098 48.646156 C 158.41046 48.620115999999996 158.71970000000002 48.594076 159.03871 48.568025999999996 C 159.35772 48.541985999999994 159.63441 48.489906 159.86879000000002 48.411775999999996 C 160.23337 48.294591 160.50355000000002 48.089513 160.67934000000002 47.796541999999995 C 160.85511000000002 47.503575999999995 160.94301000000002 47.122716999999994 160.94301000000002 46.653963999999995 L 160.94301000000002 34.759432999999994 C 160.94301000000002 34.355802 160.84861 33.95866699999999 160.65981000000002 33.568025999999996 C 160.47100000000003 33.177417999999996 160.20733 32.86491899999999 159.86879000000002 32.630525999999996 C 159.62139000000002 32.47429399999999 159.32842000000002 32.360361999999995 158.98988000000003 32.288729999999994 C 158.65134000000003 32.21713 158.28676000000002 32.168305 157.89613000000003 32.142244999999996 L 157.89613000000003 30.872713999999995 L 164.30238000000003 30.443025999999996 L 164.57582000000002 30.716463999999995 L 164.57582000000002 33.431307999999994 L 164.67352000000002 33.431307999999994 C 165.48080000000002 32.37663799999999 166.37924000000004 31.575856999999996 167.36883000000003 31.028963999999995 C 168.35840000000002 30.482107999999997 169.26335000000003 30.208670999999995 170.08367000000004 30.208650999999996 C 170.90397000000004 30.208670999999995 171.57129000000003 30.475597999999994 172.08563000000004 31.009432999999998 C 172.59993000000003 31.543304999999997 172.85710000000003 32.25945 172.85711000000003 33.157869999999996 z" transform="translate(-165.38, -40.07)" style="stroke: none; stroke-width: 1; stroke-dasharray: none; stroke-linecap: butt; stroke-dashoffset: 0; stroke-linejoin: miter; stroke-miterlimit: 4; fill: rgb(255,0,0); fill-rule: nonzero; opacity: 1;"/>
</g>
		<g id="path6729" transform="matrix(1 0 0 1 2.78 -4.05)">
<path stroke-linecap="round" d="M 193.65859 37.220375 C 194.24451 37.871429 194.67745 38.584318999999994 194.95742 39.359047 C 195.23735000000002 40.133796 195.37732000000003 41.035487999999994 195.37734 42.064125 C 195.37732 44.512046999999995 194.47237 46.530274 192.6625 48.118812999999996 C 190.85259 49.70735499999999 188.60649 50.501625 185.92422 50.501625 C 184.68723 50.501625 183.45024999999998 50.309568 182.21328 49.925453 C 180.97629 49.541339 179.90859 49.075844999999994 179.01015 48.528969 L 178.17031 49.95475 L 176.60781 49.95475 L 176.33437 40.462562999999996 L 177.9164 40.462562999999996 C 178.24192000000002 41.634446 178.62278 42.692387999999994 179.05898000000002 43.636390999999996 C 179.49517000000003 44.580406999999994 180.07135000000002 45.46256699999999 180.78750000000002 46.282875 C 181.46457 47.051106999999995 182.25559 47.663086 183.16054000000003 48.118812999999996 C 184.06548000000004 48.574543 185.11691000000002 48.80240799999999 186.31484000000003 48.802406 C 187.21327000000002 48.802408 187.99777000000003 48.68522 188.66836000000004 48.450844 C 189.33891000000003 48.216471 189.88253000000003 47.88444 190.29922000000005 47.45475 C 190.71587000000005 47.025065999999995 191.02511000000004 46.520509 191.22695000000004 45.941078 C 191.42876000000004 45.361655999999996 191.52967000000004 44.694339 191.52969000000004 43.939125 C 191.52967000000004 42.832361 191.21717000000004 41.800461 190.59219000000004 40.843422 C 189.96717000000004 39.886401 189.03618000000006 39.160489999999996 187.79922000000005 38.665687999999996 C 186.95285000000004 38.327158 185.98280000000005 37.952808999999995 184.88906000000006 37.542640999999996 C 183.79530000000005 37.132496999999994 182.85129000000006 36.745127999999994 182.05703000000005 36.380531 C 180.49452000000005 35.677420999999995 179.28033000000005 34.756198 178.41445000000004 33.616859999999996 C 177.54856000000004 32.477554 177.11562000000004 30.989924999999996 177.11562000000004 29.153968999999996 C 177.11562000000004 28.099302999999995 177.33046000000004 27.116230999999996 177.76015000000004 26.204749999999997 C 178.18984000000003 25.293317 178.80182000000005 24.479514999999996 179.59609000000003 23.763343999999996 C 180.35129000000003 23.086286999999995 181.24322000000004 22.555688999999997 182.27187000000004 22.171546999999997 C 183.30051000000003 21.787460999999997 184.37473000000003 21.595404 185.49453000000003 21.595374999999997 C 186.77056000000002 21.595404 187.91314000000003 21.790715999999996 188.92226000000002 22.181312999999996 C 189.93136 22.571964999999995 190.85259000000002 23.027693999999997 191.68594000000002 23.548499999999997 L 192.48672000000002 22.220374999999997 L 194.04922000000002 22.220374999999997 L 194.20547000000002 31.419593999999996 L 192.62344000000002 31.419593999999996 C 192.33696 30.364925999999997 192.01469000000003 29.355811999999997 191.65664 28.392249999999997 C 191.29855 27.428730999999996 190.83305000000001 26.556335999999998 190.26015 25.775062999999996 C 189.70024 25.019878999999996 189.01665 24.417665999999997 188.20937 23.968421999999997 C 187.40207 23.519229999999997 186.41249000000002 23.294620999999996 185.24062 23.294593999999996 C 184.00363000000002 23.294620999999996 182.94895 23.691755999999998 182.07656 24.485999999999997 C 181.20416 25.280295999999996 180.76796 26.250346999999998 180.76797 27.396155999999998 C 180.76796 28.594094 181.04791 29.586931999999997 181.60781 30.374671999999997 C 182.1677 31.162450999999997 182.9815 31.810236999999997 184.04922 32.318031 C 184.99973 32.773778 185.93397 33.167657999999996 186.85195 33.499672 C 187.76990999999998 33.831719 188.65858 34.186536999999994 189.51797 34.564125 C 190.29919999999998 34.902682 191.05114999999998 35.286795999999995 191.77383 35.716469 C 192.49646 36.14617 193.12472 36.64747199999999 193.65859 37.220375 z" transform="translate(-185.86, -36.05)" style="stroke: none; stroke-width: 1; stroke-dasharray: none; stroke-linecap: butt; stroke-dashoffset: 0; stroke-linejoin: miter; stroke-miterlimit: 4; fill: rgb(255,0,0); fill-rule: nonzero; opacity: 1;"/>
</g>
		<g id="path6731" transform="matrix(1 0 0 1 19.64 4.54)">
<path stroke-linecap="round" d="M 192.71172 56.224281 C 192.71172 55.573234 192.89076 55.042635999999995 193.24883000000003 54.632484999999996 C 193.60690000000002 54.22232399999999 194.05287 54.01724599999999 194.58672 54.01725 C 195.00339000000002 54.017246 195.36146000000002 54.095369999999996 195.66094 54.251625 C 195.96042 54.407871 196.22734 54.609693 196.46172 54.857094 C 196.65703000000002 55.052400999999996 196.86536 55.319328 197.08672 55.657875 C 197.30807000000001 55.996410999999995 197.48385000000002 56.276357999999995 197.61407000000003 56.497719 C 198.26510000000002 56.14615 199.04310000000004 55.228182 199.94805000000002 53.743812999999996 C 200.85299000000003 52.259434999999996 201.50729 50.957353 201.91094 49.837562999999996 C 200.67395000000002 46.751628 199.55416000000002 43.991215 198.55157 41.556312999999996 C 197.54896 39.121427999999995 196.50078 36.601898999999996 195.40703 33.997719 C 195.15964 33.398776999999995 194.74296999999999 32.933282999999996 194.15703 32.601234999999996 C 193.5711 32.269220999999995 192.98515999999998 32.057632999999996 192.39921999999999 31.966468999999996 L 192.39921999999999 30.677405999999998 L 201.18828 30.677405999999998 L 201.18828 32.044594 C 200.79765 32.05763399999999 200.3289 32.139013999999996 199.78203 32.288734999999996 C 199.23515 32.438492 198.96171999999999 32.611017999999994 198.96171999999999 32.806312999999996 C 198.96171999999999 32.88445299999999 198.99102 33.014663 199.04961999999998 33.196937999999996 C 199.10822 33.379245999999995 199.17656999999997 33.568048 199.25469999999999 33.763344 C 199.74948999999998 35.052420999999995 200.50468999999998 36.911142999999996 201.52032999999997 39.339515999999996 C 202.53593999999998 41.767908999999996 203.32369999999997 43.71126699999999 203.88360999999998 45.169594 C 204.46952999999996 43.776371 205.07825999999997 42.334315 205.70977999999997 40.843422 C 206.34127999999995 39.352546999999994 207.04765999999998 37.591480999999995 207.82891999999995 35.560219 C 207.92001999999997 35.312838 208.05025999999995 34.971041 208.21953999999997 34.534828 C 208.38879999999997 34.098645999999995 208.47343999999995 33.724298 208.47344999999996 33.411781 C 208.47343999999995 33.073257 208.17720999999995 32.757501999999995 207.58477999999997 32.464515999999996 C 206.99231999999998 32.171564999999994 206.42916999999997 31.992528999999998 205.89532999999997 31.927405999999998 L 205.89532999999997 30.677405999999998 L 213.04375999999996 30.677405999999998 L 213.04375999999996 31.888343999999996 C 212.65311999999997 31.953463999999997 212.13879999999997 32.178075 211.50078999999997 32.562172 C 210.86275999999998 32.946304 210.38749999999996 33.489923 210.07500999999996 34.193031 C 208.52551999999997 37.786794 207.14856999999995 41.06153 205.94414999999995 44.01725 C 204.73971999999995 46.972981999999995 203.82499999999996 49.147459 203.20000999999996 50.540687999999996 C 202.37968999999995 52.36360199999999 201.64726999999996 53.78612699999999 201.00274999999996 54.808265999999996 C 200.35820999999996 55.830394999999996 199.72994999999997 56.634431 199.11797999999996 57.220375 C 198.51901999999995 57.767241999999996 197.97539999999995 58.135081 197.48711999999995 58.323890999999996 C 196.99883999999994 58.51268399999999 196.49427999999995 58.607085 195.97344999999996 58.607094 C 194.95781999999997 58.607085 194.16029999999995 58.3662 193.58086999999995 57.884437999999996 C 193.00144999999995 57.40265899999999 192.71172999999996 56.849275 192.71172999999996 56.224281 z" transform="translate(-202.72, -44.64)" style="stroke: none; stroke-width: 1; stroke-dasharray: none; stroke-linecap: butt; stroke-dashoffset: 0; stroke-linejoin: miter; stroke-miterlimit: 4; fill: rgb(255,0,0); fill-rule: nonzero; opacity: 1;"/>
</g>
		<g id="path6733" transform="matrix(1 0 0 1 33.83 0.18)">
<path stroke-linecap="round" d="M 222.4289 40.501625 C 222.96274 40.970383999999996 223.3729 41.510748 223.65937 42.122719 C 223.94581 42.734705 224.08903999999998 43.483402999999996 224.08906 44.368812999999996 C 224.08903999999998 46.152671 223.42172 47.611003 222.0871 48.743812999999996 C 220.75245999999999 49.876625 219.02393999999998 50.443031 216.90156 50.443031 C 215.78176 50.443031 214.74985999999998 50.241208 213.80585 49.837562999999996 C 212.86184 49.433916999999994 212.18801 49.062824 211.78437 48.724281 L 211.39374 49.993812999999996 L 209.9289 49.993812999999996 L 209.73359 43.294594 L 211.08123999999998 43.294594 C 211.18541 43.802412999999994 211.40676 44.394859999999994 211.74531 45.071937999999996 C 212.08383999999998 45.749024999999996 212.494 46.361003999999994 212.97578 46.907875 C 213.48358 47.480793999999996 214.09231 47.962565 214.80194999999998 48.353187999999996 C 215.51157999999998 48.74381399999999 216.30909999999997 48.939125999999995 217.19453 48.939125 C 218.44451999999998 48.939125999999995 219.40805999999998 48.655922999999994 220.08515 48.089515999999996 C 220.76221999999999 47.523112 221.10076 46.712565999999995 221.10078 45.657875 C 221.10075999999998 45.111005 220.99334 44.638999999999996 220.77850999999998 44.241859999999996 C 220.56365 43.84473 220.2479 43.49642299999999 219.83123999999998 43.196937999999996 C 219.40155 42.897465999999994 218.87419999999997 42.627283999999996 218.24920999999998 42.386390999999996 C 217.62419999999997 42.145512999999994 216.92758999999998 41.907883 216.15936999999997 41.6735 C 215.54737999999998 41.491217 214.86704999999998 41.240565999999994 214.11834999999996 40.921547 C 213.36964999999995 40.602546 212.72837999999996 40.228196999999994 212.19452999999996 39.7985 C 211.62160999999995 39.342782 211.15285999999995 38.782886 210.78827999999996 38.118812999999996 C 210.42368999999997 37.45476299999999 210.24139999999997 36.67351299999999 210.24139999999997 35.775062999999996 C 210.24139999999997 34.199557999999996 210.82733999999996 32.864923999999995 211.99920999999998 31.771155999999998 C 213.17108 30.677425999999997 214.74008999999998 30.130550999999997 216.70623999999998 30.130530999999998 C 217.46143999999998 30.130550999999997 218.23292999999998 30.228210999999998 219.02069999999998 30.423499999999997 C 219.80844999999997 30.618831999999998 220.44971999999999 30.853206999999998 220.94453 31.126624999999997 L 221.39373999999998 30.110999999999997 L 222.79998999999998 30.110999999999997 L 223.09295999999998 36.302406 L 221.74531 36.302406 C 221.47186 34.922213 220.88266 33.799167 219.97772999999998 32.933265999999996 C 219.07277 32.067398 217.96926 31.634455999999997 216.66717999999997 31.634437999999996 C 215.59946999999997 31.634455999999997 214.75961999999998 31.901382999999996 214.14764999999997 32.435219 C 213.53566999999998 32.969089999999994 213.22967999999997 33.613620999999995 213.22967999999997 34.368812999999996 C 213.22967999999997 34.954764999999995 213.33058999999997 35.443045999999995 213.53241999999997 35.833656 C 213.73422999999997 36.224295 214.03696999999997 36.556326 214.44061999999997 36.82975 C 214.83123999999998 37.09018 215.32276999999996 37.33432 215.91522999999998 37.562172 C 216.50767 37.790048999999996 217.24008999999998 38.04721 218.11248999999998 38.333656 C 218.97186 38.607105 219.78239999999997 38.926114999999996 220.54413999999997 39.290687999999996 C 221.30583999999996 39.655280999999995 221.93409999999997 40.058927 222.42889999999997 40.501625 z" transform="translate(-216.91, -40.28)" style="stroke: none; stroke-width: 1; stroke-dasharray: none; stroke-linecap: butt; stroke-dashoffset: 0; stroke-linejoin: miter; stroke-miterlimit: 4; fill: rgb(255,0,0); fill-rule: nonzero; opacity: 1;"/>
</g>
		<g id="path6735" transform="matrix(1 0 0 1 45.12 -2.55)">
<path stroke-linecap="round" d="M 234.72422 49.095375 C 233.87785 49.446937999999996 233.07707 49.743162 232.32188 49.984047 C 231.56665999999998 50.224931999999995 230.64218 50.345375 229.54844 50.345375 C 227.93385 50.345375 226.79778 49.938474 226.14023 49.124672 C 225.48268000000002 48.310871999999996 225.1539 47.161784 225.15391 45.677406 L 225.15391 32.630531 L 221.67734 32.630531 L 221.67734 30.755530999999998 L 225.23202999999998 30.755530999999998 L 225.23202999999998 24.759437999999996 L 228.78671999999997 24.759437999999996 L 228.78671999999997 30.755530999999998 L 234.31405999999998 30.755530999999998 L 234.31405999999998 32.630531 L 228.82577999999998 32.630531 L 228.82577999999998 43.39225 C 228.82576999999998 44.199548 228.85508 44.873374999999996 228.91367999999997 45.413734999999996 C 228.97227999999998 45.954102999999996 229.11223999999996 46.42610799999999 229.33359999999996 46.82975 C 229.54192999999995 47.207356999999995 229.85442999999995 47.493815 230.27109999999996 47.689125 C 230.68775999999997 47.88444 231.24765999999997 47.982096 231.95078999999996 47.982094 C 232.27629999999996 47.982096 232.75481999999997 47.95280399999999 233.38633999999996 47.894203999999995 C 234.01783999999995 47.83561399999999 234.46379999999996 47.760743 234.72422999999995 47.669594999999994 z" transform="translate(-228.2, -37.55)" style="stroke: none; stroke-width: 1; stroke-dasharray: none; stroke-linecap: butt; stroke-dashoffset: 0; stroke-linejoin: miter; stroke-miterlimit: 4; fill: rgb(255,0,0); fill-rule: nonzero; opacity: 1;"/>
</g>
		<g id="path6737" transform="matrix(1 0 0 1 57.98 0.19)">
<path stroke-linecap="round" d="M 249.61719 45.403969 C 248.80988 46.94043 247.72916 48.164387 246.37501 49.075844 C 245.02083 49.987302 243.46484 50.443031 241.70704 50.443031 C 240.15755000000001 50.443031 238.80013 50.169594 237.63477 49.622719 C 236.4694 49.075844999999994 235.50912 48.333658 234.75391 47.396156 C 233.99869999999999 46.458659999999995 233.43554999999998 45.364911 233.06446 44.114906 C 232.69335999999998 42.864914 232.50782 41.543299999999995 232.50782 40.150062999999996 C 232.50782 38.900074 232.70639 37.672861 233.10352 36.468422 C 233.50066 35.26401 234.08334 34.180026 234.85157 33.216469 C 235.59375 32.292007 236.51498 31.546564999999998 237.61524 30.980140999999996 C 238.71549 30.413753999999997 239.94922 30.130550999999997 241.31641 30.130530999999998 C 242.72265 30.130550999999997 243.92708 30.351905 244.92969 30.794593999999996 C 245.93228 31.237320999999998 246.74608 31.842788999999996 247.37109999999998 32.611 C 247.97003999999998 33.340182999999996 248.416 34.199557999999996 248.70898999999997 35.189125 C 249.00193999999996 36.178722 249.14842999999996 37.252939999999995 249.14843999999997 38.411781 L 249.14843999999997 39.700844 L 236.39453999999998 39.700844 C 236.39452999999997 40.963874 236.51497999999998 42.109705999999996 236.75587 43.138344 C 236.99675 44.166996 237.3776 45.071943 237.89844 45.853187999999996 C 238.40625 46.608399 239.07031 47.204102 239.89063 47.640297 C 240.71093 48.076496999999996 241.6875 48.294596 242.82031999999998 48.294594 C 243.97915999999998 48.294596 244.97850999999997 48.02441399999999 245.81837 47.484047 C 246.65819 46.943686 247.46874 45.970378999999994 248.25000999999997 44.564125 z M 245.30079 38.060219 C 245.30077 37.331064999999995 245.23889 36.549816 245.11524 35.716469 C 244.99153 34.883151 244.79296 34.186536999999994 244.51954 33.626625 C 244.22005000000001 33.027683999999994 243.80989 32.539403 243.28907 32.161781 C 242.76822 31.784194999999997 242.09765000000002 31.595394 241.27735 31.595374999999997 C 239.91015000000002 31.595394 238.77409 32.165054 237.86915000000002 33.304359999999996 C 236.96419000000003 34.443698 236.47266000000002 36.028983 236.39454 38.060219 z" transform="translate(-241.06, -40.29)" style="stroke: none; stroke-width: 1; stroke-dasharray: none; stroke-linecap: butt; stroke-dashoffset: 0; stroke-linejoin: miter; stroke-miterlimit: 4; fill: rgb(255,0,0); fill-rule: nonzero; opacity: 1;"/>
</g>
		<g id="path6739" transform="matrix(1 0 0 1 81 -0.06)">
<path stroke-linecap="round" d="M 280.72109 49.935219 L 271.32656000000003 49.935219 L 271.32656000000003 48.646156 C 271.62601 48.620115999999996 271.92875000000004 48.594076 272.23476000000005 48.568025999999996 C 272.54073000000005 48.541985999999994 272.81091000000004 48.489906 273.04531000000003 48.411775999999996 C 273.40987 48.294591 273.68005000000005 48.089513 273.85586 47.796541999999995 C 274.03161 47.503575999999995 274.1195 47.122716999999994 274.11953 46.653963999999995 L 274.11953 36.712557999999994 C 274.1195 35.358405999999995 273.81025999999997 34.31348499999999 273.19178999999997 33.577791999999995 C 272.57327999999995 32.84213199999999 271.80179 32.47429399999999 270.87733999999995 32.474275999999996 C 270.23929999999996 32.47429399999999 269.6403399999999 32.571946 269.08046999999993 32.767244999999996 C 268.52054999999996 32.962574999999994 268.00622999999996 33.236011999999995 267.5374999999999 33.587557999999994 C 267.1598699999999 33.87403199999999 266.8441199999999 34.183277 266.5902299999999 34.515291999999995 C 266.3363099999999 34.84733799999999 266.1442499999999 35.124030999999995 266.0140599999999 35.345369999999996 L 266.0140599999999 46.458650999999996 C 266.0140399999999 46.914384 266.0921599999999 47.288731999999996 266.2484399999999 47.581697999999996 C 266.4046599999999 47.874669 266.6715899999999 48.099278 267.0492199999999 48.255525999999996 C 267.34866999999986 48.372716 267.61885999999987 48.460606 267.8597599999999 48.519197999999996 C 268.10062999999985 48.577797999999994 268.4163799999999 48.620110999999994 268.8070299999999 48.646150999999996 L 268.8070299999999 49.935213999999995 L 259.60780999999986 49.935213999999995 L 259.60780999999986 48.646150999999996 C 259.90727999999984 48.620110999999994 260.19698999999986 48.594071 260.4769499999999 48.568020999999995 C 260.75687999999985 48.54198099999999 261.0140499999999 48.489900999999996 261.24843999999985 48.411770999999995 C 261.61299999999983 48.294585999999995 261.88318999999984 48.089507999999995 262.05897999999985 47.796536999999994 C 262.23474999999985 47.503570999999994 262.32263999999986 47.12271199999999 262.32264999999984 46.65395899999999 L 262.32264999999984 36.71255299999999 C 262.32263999999986 35.35840099999999 262.01338999999984 34.31347999999999 261.39491999999984 33.577786999999994 C 260.77641999999986 32.84212699999999 260.00492999999983 32.47428899999999 259.0804699999998 32.474270999999995 C 258.44242999999983 32.47428899999999 257.84347999999983 32.575199999999995 257.28358999999983 32.77700599999999 C 256.7236899999998 32.97884599999999 256.20935999999983 33.255537999999994 255.74061999999984 33.60708399999999 C 255.36300999999983 33.89355799999999 255.04399999999984 34.21582399999999 254.78358999999983 34.57388099999999 C 254.52316999999982 34.931968999999995 254.32784999999984 35.20215099999999 254.19764999999984 35.38442799999999 L 254.19764999999984 46.41958399999999 C 254.19764999999984 46.862294999999996 254.28874999999985 47.233388999999995 254.47108999999983 47.532864999999994 C 254.65336999999982 47.832345999999994 254.92680999999985 48.060210999999995 255.29139999999984 48.21645899999999 C 255.56482999999983 48.34666899999999 255.84477999999984 48.44432499999999 256.13124999999985 48.50942799999999 C 256.41769999999985 48.574527999999994 256.73670999999985 48.62010599999999 257.0882799999998 48.646145999999995 L 257.0882799999998 49.93520899999999 L 247.73280999999983 49.93520899999999 L 247.73280999999983 48.646145999999995 C 248.03228999999982 48.62010599999999 248.34152999999984 48.594066 248.66053999999983 48.56801599999999 C 248.97954999999982 48.54197599999999 249.25623999999982 48.489895999999995 249.49061999999984 48.41176599999999 C 249.85519999999983 48.294580999999994 250.12537999999984 48.08950299999999 250.30116999999984 47.79653199999999 C 250.47694999999985 47.50356599999999 250.56483999999983 47.12270699999999 250.56483999999983 46.65395399999999 L 250.56483999999983 34.68129799999999 C 250.56483999999983 34.26464699999999 250.47043999999983 33.890297999999994 250.28163999999984 33.55825099999999 C 250.09282999999985 33.22623599999999 249.82915999999983 32.94303299999999 249.49061999999984 32.70864099999999 C 249.24321999999984 32.55240899999999 248.93722999999983 32.42545599999999 248.57264999999984 32.32778199999999 C 248.20806999999985 32.230141999999994 247.83045999999985 32.16829499999999 247.43983999999983 32.14223499999999 L 247.43983999999983 30.87270399999999 L 253.88514999999984 30.443015999999993 L 254.15858999999983 30.71645399999999 L 254.15858999999983 33.47035999999999 L 254.29530999999983 33.47035999999999 C 254.62081999999984 33.14485599999999 255.01795999999982 32.76074199999999 255.48671999999982 32.31801599999999 C 255.95545999999982 31.875325999999994 256.3916499999998 31.517253999999994 256.7953099999998 31.243797999999995 C 257.2510299999998 30.931316999999993 257.8206899999998 30.670899999999996 258.5042899999998 30.462547999999995 C 259.1878799999998 30.254233999999993 259.9268099999998 30.150067999999994 260.7210899999998 30.150047999999995 C 261.9710799999998 30.150067999999994 263.0452899999998 30.485353999999994 263.9437499999998 31.155906999999996 C 264.8421699999998 31.826497999999997 265.4866999999998 32.637043999999996 265.8773399999998 33.587548 C 266.34606999999977 33.131834999999995 266.75947999999977 32.731445 267.11757999999975 32.386376 C 267.47562999999974 32.041342 267.9476299999998 31.673503 268.5335899999998 31.28286 C 269.0283599999998 30.944338 269.6110399999998 30.6709 270.28163999999975 30.462547999999998 C 270.95218999999975 30.254233999999997 271.6976299999998 30.150067999999997 272.51796999999976 30.150047999999998 C 274.14553999999976 30.150067999999997 275.43459999999976 30.683920999999998 276.3851499999998 31.75161 C 277.3356399999998 32.819336 277.8108999999998 34.459959 277.8109399999998 36.673485 L 277.8109399999998 46.458641 C 277.8108999999998 46.914374 277.8890399999998 47.288722 278.0453099999998 47.581688 C 278.2015299999998 47.874659 278.4684499999998 48.099268 278.8460899999998 48.255516 C 279.14553999999976 48.372706 279.44175999999976 48.460596 279.73475999999977 48.519188 C 280.02769999999975 48.577788 280.3564699999998 48.620101 280.7210899999998 48.646141 z" transform="translate(-264.08, -40.04)" style="stroke: none; stroke-width: 1; stroke-dasharray: none; stroke-linecap: butt; stroke-dashoffset: 0; stroke-linejoin: miter; stroke-miterlimit: 4; fill: rgb(255,0,0); fill-rule: nonzero; opacity: 1;"/>
</g>
		<g id="path6742" transform="matrix(1.03 0 0 0.97 105.85 -7.18)">
<path stroke-linecap="round" d="M 287.79696 1014.1516 L 285.27984000000004 1014.1516 L 285.27984000000004 1013.7733000000001 C 285.35744000000005 1013.7733000000001 285.46777000000003 1013.7633000000001 285.61085 1013.7553 C 285.75391 1013.7433000000001 285.84970000000004 1013.7253000000001 285.89821 1013.7003000000001 C 285.97581 1013.6473000000001 286.02914 1013.6033000000001 286.05826 1013.5694000000001 C 286.08736000000005 1013.5354000000001 286.10186000000004 1013.4824000000001 286.10186000000004 1013.4093 L 286.10186000000004 1010.1283000000001 L 285.99273000000005 1010.1283000000001 L 284.21766 1013.9913000000001 L 283.98486 1013.9913000000001 L 282.26071 1010.0556000000001 L 282.15158 1010.0556000000001 L 282.15158 1012.7037000000001 C 282.15158 1012.9607000000001 282.16738000000004 1013.1559000000001 282.19888000000003 1013.2893000000001 C 282.23038 1013.4227000000002 282.28498 1013.5233000000002 282.36257 1013.5912000000002 C 282.42557 1013.6302000000002 282.53231 1013.6702000000001 282.68266 1013.7112000000002 C 282.833 1013.7522000000002 282.96395 1013.7732000000002 283.07551 1013.7732000000002 L 283.07551 1014.1515000000002 L 280.78391 1014.1515000000002 L 280.78391 1013.7877000000002 C 280.86151 1013.7737000000002 280.97669 1013.7547000000002 281.12946999999997 1013.7337000000002 C 281.28223999999994 1013.7117000000002 281.39741999999995 1013.6747000000003 281.47502999999995 1013.6209000000002 C 281.55742999999995 1013.5579000000002 281.61323999999996 1013.4706000000002 281.64234999999996 1013.3590000000003 C 281.67145 1013.2475000000003 281.68595 1013.0389000000002 281.68604999999997 1012.7334000000003 L 281.68604999999997 1010.2090000000003 C 281.68604 1010.0926000000003 281.66785 1009.9956000000003 281.63145 1009.9180000000002 C 281.59504999999996 1009.8400000000003 281.54294999999996 1009.7725000000003 281.47504 1009.7143000000002 C 281.40224 1009.6563000000002 281.31135 1009.6137000000002 281.20223 1009.5870000000002 C 281.0931 1009.5600000000002 280.96821 1009.5420000000003 280.82757 1009.5320000000003 L 280.82757 1009.1610000000003 L 282.84999999999997 1009.1610000000003 L 284.385 1012.5947000000003 L 285.66537999999997 1009.7794000000004 C 285.71867999999995 1009.6581000000003 285.75867999999997 1009.5429000000004 285.78542 1009.4338000000004 C 285.81212 1009.3247000000003 285.83272 1009.2337000000003 285.84722 1009.1610000000004 L 287.7969 1009.1610000000004 L 287.7969 1009.5320000000004 C 287.7144 1009.5320000000004 287.60895 1009.5490000000004 287.48044 1009.5680000000003 C 287.3519 1009.5870000000003 287.26097 1009.6070000000003 287.20763 1009.6260000000003 C 287.13483 1009.6400000000003 287.08879 1009.6740000000003 287.06941 1009.7278000000003 C 287.05001 1009.7808000000003 287.04031 1009.8345000000004 287.04031 1009.8879000000004 L 287.04031 1013.4089000000004 C 287.04028999999997 1013.4769000000003 287.05030999999997 1013.5314000000003 287.06941 1013.5726000000003 C 287.08881 1013.6136000000004 287.13491 1013.6516000000003 287.20763 1013.6854000000003 C 287.25613 1013.6994000000003 287.33978 1013.7184000000003 287.45861 1013.7394000000003 C 287.57742 1013.7614000000003 287.69018 1013.7724000000003 287.7969 1013.7724000000003 z M 279.94007 1010.6014 L 279.59087 1010.6014 C 279.54237 1010.4414 279.44415 1010.2413 279.29624 1010.0012 C 279.14831000000004 1009.7612 279.00402 1009.6266 278.86338 1009.5975000000001 C 278.75668 1009.5875000000001 278.6524 1009.5805 278.55056 1009.5755 C 278.44871 1009.5755 278.36383 1009.5655 278.29594000000003 1009.5655 L 277.93947000000003 1009.5655 L 277.93947000000003 1013.3775 C 277.93946000000005 1013.4455 277.95037 1013.5024000000001 277.97217 1013.5485000000001 C 277.99397 1013.5945000000002 278.04367 1013.6345000000001 278.12131 1013.6685000000001 C 278.16981 1013.6835000000001 278.25953 1013.7035000000001 278.39047999999997 1013.7305000000001 C 278.52142999999995 1013.7575000000002 278.64266999999995 1013.7705000000001 278.75422999999995 1013.7705000000001 L 278.75422999999995 1014.1488 L 276.18618999999995 1014.1488 L 276.18618999999995 1013.7705000000001 C 276.28318999999993 1013.7705000000001 276.40200999999996 1013.7605000000001 276.54265999999996 1013.7455000000001 C 276.6833 1013.7285 276.77545 1013.7125000000001 276.81909999999993 1013.6985000000001 C 276.8918999999999 1013.6745000000001 276.9403499999999 1013.6355000000001 276.96459999999996 1013.5821000000001 C 276.98879999999997 1013.5291000000001 277.001 1013.4754 277.001 1013.4221000000001 L 277.001 1009.5664000000002 L 276.64453 1009.5664000000002 C 276.57173 1009.5664000000002 276.47477999999995 1009.5664000000002 276.35353 1009.5774000000001 C 276.23228 1009.5874000000001 276.14013 1009.5904000000002 276.07707999999997 1009.5954000000002 C 275.92672999999996 1009.6194000000002 275.78002 1009.7542000000002 275.63694999999996 1009.9991000000001 C 275.49387999999993 1010.2441000000001 275.39808999999997 1010.4441000000002 275.34959 1010.5993000000001 L 275.00039999999996 1010.5993000000001 L 275.00039999999996 1009.1589000000001 L 279.94005999999996 1009.1589000000001 z" transform="translate(-281.4, -1011.66)" style="stroke: none; stroke-width: 1; stroke-dasharray: none; stroke-linecap: butt; stroke-dashoffset: 0; stroke-linejoin: miter; stroke-miterlimit: 4; fill: rgb(255,0,0); fill-rule: nonzero; opacity: 1;"/>
</g>
</g>
</g>
</svg>